%TF.GenerationSoftware,Altium Limited,Altium Designer,24.7.2 (38)*%
G04 Layer_Physical_Order=2*
G04 Layer_Color=16711680*
%FSLAX45Y45*%
%MOMM*%
%TF.SameCoordinates,9ACD2C78-16F9-471E-BE13-A41C8B7133E8*%
%TF.FilePolarity,Positive*%
%TF.FileFunction,Copper,L2,Bot,Signal*%
%TF.Part,Single*%
G01*
G75*
%TA.AperFunction,ViaPad*%
%ADD15C,0.70000*%
G36*
X3031045Y1103275D02*
X3062893Y1090083D01*
X3091556Y1070931D01*
X3115931Y1046556D01*
X3135083Y1017893D01*
X3148275Y986046D01*
X3155000Y952236D01*
Y935000D01*
Y207500D01*
Y191987D01*
X3148947Y161559D01*
X3137074Y132896D01*
X3119838Y107099D01*
X3097900Y85162D01*
X3072104Y67925D01*
X3043441Y56052D01*
X3013012Y50000D01*
X273983D01*
X224911Y59761D01*
X178686Y78908D01*
X137084Y106705D01*
X101705Y142084D01*
X73908Y183686D01*
X54761Y229911D01*
X45000Y278983D01*
Y304000D01*
Y657500D01*
X45000Y657500D01*
X40000Y680829D01*
Y925000D01*
Y943221D01*
X47109Y978962D01*
X61055Y1012630D01*
X81301Y1042931D01*
X107069Y1068699D01*
X137370Y1088945D01*
X171038Y1102891D01*
X206779Y1110000D01*
X2997236D01*
X3031045Y1103275D01*
D02*
G37*
%LPC*%
G36*
X2427700Y710116D02*
Y662700D01*
X2475116D01*
X2466205Y684214D01*
X2449214Y701205D01*
X2427700Y710116D01*
D02*
G37*
G36*
X2402300D02*
X2380786Y701205D01*
X2363795Y684214D01*
X2354884Y662700D01*
X2402300D01*
Y710116D01*
D02*
G37*
G36*
X2475116Y637300D02*
X2427700D01*
Y589884D01*
X2449214Y598795D01*
X2466205Y615786D01*
X2475116Y637300D01*
D02*
G37*
G36*
X2402300D02*
X2354884D01*
X2363795Y615786D01*
X2380786Y598795D01*
X2402300Y589884D01*
Y637300D01*
D02*
G37*
G36*
X1325200Y597616D02*
Y550200D01*
X1372616D01*
X1363705Y571714D01*
X1346714Y588705D01*
X1325200Y597616D01*
D02*
G37*
G36*
X1299800D02*
X1278286Y588705D01*
X1261295Y571714D01*
X1252384Y550200D01*
X1299800D01*
Y597616D01*
D02*
G37*
G36*
X770200Y527616D02*
Y480200D01*
X817616D01*
X808705Y501714D01*
X791714Y518705D01*
X770200Y527616D01*
D02*
G37*
G36*
X744800D02*
X723286Y518705D01*
X706295Y501714D01*
X697384Y480200D01*
X744800D01*
Y527616D01*
D02*
G37*
G36*
X1372616Y524800D02*
X1325200D01*
Y477384D01*
X1346714Y486295D01*
X1363705Y503286D01*
X1372616Y524800D01*
D02*
G37*
G36*
X1299800D02*
X1252384D01*
X1261295Y503286D01*
X1278286Y486295D01*
X1299800Y477384D01*
Y524800D01*
D02*
G37*
G36*
X817616Y454800D02*
X770200D01*
Y407384D01*
X791714Y416295D01*
X808705Y433286D01*
X817616Y454800D01*
D02*
G37*
G36*
X744800D02*
X697384D01*
X706295Y433286D01*
X723286Y416295D01*
X744800Y407384D01*
Y454800D01*
D02*
G37*
G36*
X1327700Y432616D02*
Y385200D01*
X1375116D01*
X1366205Y406714D01*
X1349214Y423705D01*
X1327700Y432616D01*
D02*
G37*
G36*
X1302300D02*
X1280786Y423705D01*
X1263795Y406714D01*
X1254884Y385200D01*
X1302300D01*
Y432616D01*
D02*
G37*
G36*
X1375116Y359800D02*
X1327700D01*
Y312384D01*
X1349214Y321295D01*
X1366205Y338286D01*
X1375116Y359800D01*
D02*
G37*
G36*
X1302300D02*
X1254884D01*
X1263795Y338286D01*
X1280786Y321295D01*
X1302300Y312384D01*
Y359800D01*
D02*
G37*
G36*
X2045200Y335116D02*
Y287700D01*
X2092616D01*
X2083705Y309214D01*
X2066714Y326205D01*
X2045200Y335116D01*
D02*
G37*
G36*
X2019800D02*
X1998286Y326205D01*
X1981296Y309214D01*
X1972384Y287700D01*
X2019800D01*
Y335116D01*
D02*
G37*
G36*
X2092616Y262300D02*
X2045200D01*
Y214884D01*
X2066714Y223795D01*
X2083705Y240786D01*
X2092616Y262300D01*
D02*
G37*
G36*
X2019800D02*
X1972384D01*
X1981296Y240786D01*
X1998286Y223795D01*
X2019800Y214884D01*
Y262300D01*
D02*
G37*
%LPD*%
D15*
X757500Y467500D02*
D03*
X1315000Y372500D02*
D03*
X1312500Y537500D02*
D03*
X2032500Y275000D02*
D03*
X2415000Y650000D02*
D03*
%TF.MD5,5ba47c5970621bc878b9de69a0ff0de4*%
M02*
