%TF.GenerationSoftware,Altium Limited,Altium Designer,24.7.2 (38)*%
G04 Layer_Color=65535*
%FSLAX45Y45*%
%MOMM*%
%TF.SameCoordinates,9ACD2C78-16F9-471E-BE13-A41C8B7133E8*%
%TF.FilePolarity,Positive*%
%TF.FileFunction,Legend,Top*%
%TF.Part,Single*%
G01*
G75*
%TA.AperFunction,NonConductor*%
%ADD16C,0.25000*%
%ADD17C,0.20000*%
%ADD18C,0.25400*%
D16*
X1355300Y650000D02*
G03*
X1355300Y650000I-12500J0D01*
G01*
X725400Y624100D02*
G03*
X725400Y624100I-12500J0D01*
G01*
X2442500Y487500D02*
G03*
X2442500Y487500I-12500J0D01*
G01*
D17*
X1910000D02*
Y612500D01*
X2090000Y487500D02*
Y612500D01*
X1542800Y405000D02*
Y705000D01*
Y405000D02*
X1612800D01*
Y705000D01*
X1542800D02*
X1612800D01*
X1027600Y499100D02*
Y624100D01*
X1207600Y499100D02*
Y624100D01*
X422900Y849100D02*
X545400D01*
X140400Y401600D02*
Y721600D01*
X422900Y274100D02*
X545400D01*
Y431600D01*
Y691600D02*
Y849100D01*
X2597500Y262500D02*
X2720000D01*
X3002500Y390000D02*
Y710000D01*
X2597500Y837500D02*
X2720000D01*
X2597500Y680000D02*
Y837500D01*
Y262500D02*
Y420000D01*
D18*
X1425933Y906175D02*
Y779217D01*
X1451325Y753825D01*
X1502109D01*
X1527500Y779217D01*
Y906175D01*
X1578284Y753825D02*
X1629067D01*
X1603676D01*
Y906175D01*
X1578284Y880784D01*
X217500Y1093675D02*
X166716D01*
X192108D01*
Y966717D01*
X166716Y941325D01*
X141325D01*
X115933Y966717D01*
X268284Y941325D02*
X319067D01*
X293676D01*
Y1093675D01*
X268284Y1068284D01*
X970400Y70400D02*
Y222751D01*
X1021183Y171967D01*
X1071967Y222751D01*
Y70400D01*
X1122751D02*
X1173534D01*
X1148142D01*
Y171967D01*
X1122751D01*
X1249709Y70400D02*
Y171967D01*
X1325885D01*
X1351277Y146575D01*
Y70400D01*
X1503627Y222751D02*
Y70400D01*
X1427452D01*
X1402060Y95792D01*
Y146575D01*
X1427452Y171967D01*
X1503627D01*
X1808329Y197359D02*
X1782937Y222751D01*
X1732154D01*
X1706762Y197359D01*
Y95792D01*
X1732154Y70400D01*
X1782937D01*
X1808329Y95792D01*
X1859112Y70400D02*
X1909896D01*
X1884504D01*
Y222751D01*
X1859112D01*
X2011463Y70400D02*
X2062247D01*
X2087638Y95792D01*
Y146575D01*
X2062247Y171967D01*
X2011463D01*
X1986071Y146575D01*
Y95792D01*
X2011463Y70400D01*
X2138422Y171967D02*
Y95792D01*
X2163814Y70400D01*
X2239989D01*
Y171967D01*
X2392340Y222751D02*
Y70400D01*
X2316165D01*
X2290773Y95792D01*
Y146575D01*
X2316165Y171967D01*
X2392340D01*
X2562108Y1041175D02*
X2511325D01*
X2536717D01*
Y914217D01*
X2511325Y888825D01*
X2485933D01*
X2460541Y914217D01*
X2714459Y888825D02*
X2612892D01*
X2714459Y990392D01*
Y1015784D01*
X2689067Y1041175D01*
X2638284D01*
X2612892Y1015784D01*
X1979608Y933283D02*
X1954217Y958675D01*
X1903433D01*
X1878041Y933283D01*
Y831716D01*
X1903433Y806325D01*
X1954217D01*
X1979608Y831716D01*
X2131959Y806325D02*
X2030392D01*
X2131959Y907892D01*
Y933283D01*
X2106567Y958675D01*
X2055784D01*
X2030392Y933283D01*
X1107500Y948284D02*
X1082108Y973675D01*
X1031325D01*
X1005933Y948284D01*
Y846717D01*
X1031325Y821325D01*
X1082108D01*
X1107500Y846717D01*
X1158284Y821325D02*
X1209067D01*
X1183676D01*
Y973675D01*
X1158284Y948284D01*
%TF.MD5,924893dd01fc3efafab960db48d8ccc7*%
M02*
