%TF.GenerationSoftware,Altium Limited,Altium Designer,24.7.2 (38)*%
G04 Layer_Color=8388736*
%FSLAX45Y45*%
%MOMM*%
%TF.SameCoordinates,C77648C0-80D8-424D-8617-BB5A92A82554*%
%TF.FilePolarity,Negative*%
%TF.FileFunction,Soldermask,Top*%
%TF.Part,Single*%
G01*
G75*
%TA.AperFunction,SMDPad,CuDef*%
%ADD36R,1.20320X1.10320*%
%ADD37R,1.47320X1.72720*%
%ADD38R,1.10320X1.20320*%
%ADD39R,1.40320X2.00320*%
%ADD40R,3.20320X2.20320*%
%ADD41R,1.90320X1.70320*%
G04:AMPARAMS|DCode=42|XSize=0.7532mm|YSize=1.7532mm|CornerRadius=0mm|HoleSize=0mm|Usage=FLASHONLY|Rotation=225.000|XOffset=0mm|YOffset=0mm|HoleType=Round|Shape=Round|*
%AMOVALD42*
21,1,1.00000,0.75320,0.00000,0.00000,315.0*
1,1,0.75320,-0.35355,0.35355*
1,1,0.75320,0.35355,-0.35355*
%
%ADD42OVALD42*%

G04:AMPARAMS|DCode=43|XSize=0.7532mm|YSize=1.7532mm|CornerRadius=0mm|HoleSize=0mm|Usage=FLASHONLY|Rotation=135.000|XOffset=0mm|YOffset=0mm|HoleType=Round|Shape=Round|*
%AMOVALD43*
21,1,1.00000,0.75320,0.00000,0.00000,225.0*
1,1,0.75320,0.35355,0.35355*
1,1,0.75320,-0.35355,-0.35355*
%
%ADD43OVALD43*%

%TA.AperFunction,ConnectorPad*%
%ADD44R,0.70000X1.24000*%
%ADD45R,0.40000X1.24000*%
%TA.AperFunction,ComponentPad*%
%ADD46C,0.80320*%
%ADD47O,1.10320X2.20320*%
%ADD48O,1.10320X1.90320*%
%ADD49C,1.72720*%
%TA.AperFunction,ViaPad*%
%ADD50C,1.47320*%
D36*
X965200Y889000D02*
D03*
X1117600D02*
D03*
X533400D02*
D03*
X685800D02*
D03*
X533400Y1193800D02*
D03*
X685800D02*
D03*
X965200D02*
D03*
X1117600D02*
D03*
D37*
X736600Y1600200D02*
D03*
X533400D02*
D03*
X2082800D02*
D03*
X1879600D02*
D03*
X2489200D02*
D03*
X2286000D02*
D03*
X1168400D02*
D03*
X965200D02*
D03*
D38*
X1346200Y939800D02*
D03*
Y1092200D02*
D03*
D39*
X2318400Y3527400D02*
D03*
Y3127400D02*
D03*
X2558400D02*
D03*
Y3527400D02*
D03*
D40*
X660400Y3018297D02*
D03*
Y3433303D02*
D03*
D41*
X2032000Y279400D02*
D03*
Y1269401D02*
D03*
D42*
X1577497Y1963522D02*
D03*
X1634068Y2020092D02*
D03*
X1690634Y2076658D02*
D03*
X1747205Y2133229D02*
D03*
X1803771Y2189795D02*
D03*
X1860342Y2246366D02*
D03*
X1916908Y2302932D02*
D03*
X1973478Y2359503D02*
D03*
X1368903Y2964078D02*
D03*
X1312332Y2907508D02*
D03*
X1255766Y2850942D02*
D03*
X1199195Y2794371D02*
D03*
X1142629Y2737805D02*
D03*
X1086058Y2681234D02*
D03*
X1029492Y2624668D02*
D03*
X972922Y2568097D02*
D03*
D43*
X1973478D02*
D03*
X1916908Y2624668D02*
D03*
X1860342Y2681234D02*
D03*
X1803771Y2737805D02*
D03*
X1747205Y2794371D02*
D03*
X1690634Y2850942D02*
D03*
X1634068Y2907508D02*
D03*
X1577497Y2964078D02*
D03*
X972922Y2359503D02*
D03*
X1029492Y2302932D02*
D03*
X1086058Y2246366D02*
D03*
X1142629Y2189795D02*
D03*
X1199195Y2133229D02*
D03*
X1255766Y2076658D02*
D03*
X1312332Y2020092D02*
D03*
X1368903Y1963522D02*
D03*
D44*
X1818599Y3258800D02*
D03*
X1738600D02*
D03*
X1258600D02*
D03*
X1178601D02*
D03*
D45*
X1523599D02*
D03*
X1573601D02*
D03*
X1623598D02*
D03*
X1673601D02*
D03*
X1473601D02*
D03*
X1423599D02*
D03*
X1373602D02*
D03*
X1323599D02*
D03*
D46*
X1787601Y3365800D02*
D03*
X1209599D02*
D03*
D47*
X1931101Y3316798D02*
D03*
X1066099D02*
D03*
D48*
X1931101Y3733800D02*
D03*
X1066099D02*
D03*
D49*
X2794000Y3835400D02*
D03*
Y3581400D02*
D03*
Y3327400D02*
D03*
Y3073400D02*
D03*
Y2819400D02*
D03*
Y2565400D02*
D03*
Y2311400D02*
D03*
Y2057400D02*
D03*
Y1803400D02*
D03*
Y1549400D02*
D03*
Y1295400D02*
D03*
Y1041400D02*
D03*
Y787400D02*
D03*
Y533400D02*
D03*
Y279400D02*
D03*
X254000Y3822700D02*
D03*
Y3568700D02*
D03*
Y3314700D02*
D03*
Y3060700D02*
D03*
Y2806700D02*
D03*
Y2552700D02*
D03*
Y2298700D02*
D03*
Y2044700D02*
D03*
Y1790700D02*
D03*
Y1536700D02*
D03*
Y1282700D02*
D03*
Y1028700D02*
D03*
Y774700D02*
D03*
Y520700D02*
D03*
Y266700D02*
D03*
X914400Y279400D02*
D03*
X1164402D02*
D03*
X1162238Y474980D02*
D03*
X912241D02*
D03*
X664398Y279400D02*
D03*
X662239Y474980D02*
D03*
D50*
X693420Y1333500D02*
D03*
X1905000Y2052320D02*
D03*
X1255974Y3660140D02*
D03*
X1955800Y1849120D02*
D03*
X1501140Y3027680D02*
D03*
X1549400Y3507740D02*
D03*
X2085340Y706120D02*
D03*
Y474980D02*
D03*
X1671320Y1003300D02*
D03*
X1463040Y1211580D02*
D03*
X1821180Y2463800D02*
D03*
X2358390Y1233170D02*
D03*
X2184400Y2047240D02*
D03*
X1884680Y650240D02*
D03*
X802640Y2054860D02*
D03*
X548640Y2501900D02*
D03*
X533400Y1397000D02*
D03*
X497840Y2214880D02*
D03*
X795020Y1452880D02*
D03*
X2082800Y2176780D02*
D03*
X2179320Y1871980D02*
D03*
X599440Y1953260D02*
D03*
X1066800Y1348740D02*
D03*
X830580Y3683000D02*
D03*
X3004820Y3708400D02*
D03*
X2336800Y652780D02*
D03*
X393700Y609600D02*
D03*
X1176020Y2537460D02*
D03*
X1051560Y1899920D02*
D03*
X546100Y3853180D02*
D03*
X1231900Y3484880D02*
D03*
X1023620Y3002280D02*
D03*
X1701800Y1671320D02*
D03*
X1478280Y2123440D02*
D03*
X2212340Y2565400D02*
D03*
X1450340Y2379980D02*
D03*
X1800860Y1087120D02*
D03*
X2044700Y1122680D02*
D03*
X751840Y3190240D02*
D03*
X2108200Y2369820D02*
D03*
X2133600Y3380740D02*
D03*
X2174240Y3126740D02*
D03*
X1788160Y2997200D02*
D03*
X2240280Y3705860D02*
D03*
%TF.MD5,bd740688727805104d251b10abda55c7*%
M02*
