%TF.GenerationSoftware,Altium Limited,Altium Designer,24.7.2 (38)*%
G04 Layer_Physical_Order=1*
G04 Layer_Color=255*
%FSLAX45Y45*%
%MOMM*%
%TF.SameCoordinates,C77648C0-80D8-424D-8617-BB5A92A82554*%
%TF.FilePolarity,Positive*%
%TF.FileFunction,Copper,L1,Top,Signal*%
%TF.Part,Single*%
G01*
G75*
%TA.AperFunction,SMDPad,CuDef*%
%ADD10R,1.00000X0.90000*%
%ADD11R,1.27000X1.52400*%
%ADD12R,0.90000X1.00000*%
%ADD13R,1.20000X1.80000*%
%ADD14R,3.00000X2.00000*%
%ADD15R,1.70000X1.50000*%
G04:AMPARAMS|DCode=16|XSize=0.55mm|YSize=1.55mm|CornerRadius=0mm|HoleSize=0mm|Usage=FLASHONLY|Rotation=225.000|XOffset=0mm|YOffset=0mm|HoleType=Round|Shape=Round|*
%AMOVALD16*
21,1,1.00000,0.55000,0.00000,0.00000,315.0*
1,1,0.55000,-0.35355,0.35355*
1,1,0.55000,0.35355,-0.35355*
%
%ADD16OVALD16*%

G04:AMPARAMS|DCode=17|XSize=0.55mm|YSize=1.55mm|CornerRadius=0mm|HoleSize=0mm|Usage=FLASHONLY|Rotation=135.000|XOffset=0mm|YOffset=0mm|HoleType=Round|Shape=Round|*
%AMOVALD17*
21,1,1.00000,0.55000,0.00000,0.00000,225.0*
1,1,0.55000,0.35355,0.35355*
1,1,0.55000,-0.35355,-0.35355*
%
%ADD17OVALD17*%

%TA.AperFunction,ConnectorPad*%
%ADD18R,0.60000X1.14000*%
%ADD19R,0.30000X1.14000*%
%TA.AperFunction,Conductor*%
%ADD20C,0.25400*%
%TA.AperFunction,ComponentPad*%
%ADD21C,0.60000*%
%ADD22O,0.90000X2.00000*%
%ADD23O,0.90000X1.70000*%
%ADD24C,1.52400*%
%TA.AperFunction,ViaPad*%
%ADD25C,1.27000*%
D10*
X965200Y889000D02*
D03*
X1117600D02*
D03*
X533400D02*
D03*
X685800D02*
D03*
X533400Y1193800D02*
D03*
X685800D02*
D03*
X965200D02*
D03*
X1117600D02*
D03*
D11*
X736600Y1600200D02*
D03*
X533400D02*
D03*
X2082800D02*
D03*
X1879600D02*
D03*
X2489200D02*
D03*
X2286000D02*
D03*
X1168400D02*
D03*
X965200D02*
D03*
D12*
X1346200Y939800D02*
D03*
Y1092200D02*
D03*
D13*
X2318400Y3527400D02*
D03*
Y3127400D02*
D03*
X2558400D02*
D03*
Y3527400D02*
D03*
D14*
X660400Y3018297D02*
D03*
Y3433303D02*
D03*
D15*
X2032000Y279400D02*
D03*
Y1269401D02*
D03*
D16*
X1577497Y1963522D02*
D03*
X1634068Y2020092D02*
D03*
X1690634Y2076658D02*
D03*
X1747205Y2133229D02*
D03*
X1803771Y2189795D02*
D03*
X1860342Y2246366D02*
D03*
X1916908Y2302932D02*
D03*
X1973478Y2359503D02*
D03*
X1368903Y2964078D02*
D03*
X1312332Y2907508D02*
D03*
X1255766Y2850942D02*
D03*
X1199195Y2794371D02*
D03*
X1142629Y2737805D02*
D03*
X1086058Y2681234D02*
D03*
X1029492Y2624668D02*
D03*
X972922Y2568097D02*
D03*
D17*
X1973478D02*
D03*
X1916908Y2624668D02*
D03*
X1860342Y2681234D02*
D03*
X1803771Y2737805D02*
D03*
X1747205Y2794371D02*
D03*
X1690634Y2850942D02*
D03*
X1634068Y2907508D02*
D03*
X1577497Y2964078D02*
D03*
X972922Y2359503D02*
D03*
X1029492Y2302932D02*
D03*
X1086058Y2246366D02*
D03*
X1142629Y2189795D02*
D03*
X1199195Y2133229D02*
D03*
X1255766Y2076658D02*
D03*
X1312332Y2020092D02*
D03*
X1368903Y1963522D02*
D03*
D18*
X1818599Y3258800D02*
D03*
X1738600D02*
D03*
X1258600D02*
D03*
X1178601D02*
D03*
D19*
X1523599D02*
D03*
X1573601D02*
D03*
X1623598D02*
D03*
X1673601D02*
D03*
X1473601D02*
D03*
X1423599D02*
D03*
X1373602D02*
D03*
X1323599D02*
D03*
D20*
X589280Y1498600D02*
X736600Y1351280D01*
X254000Y2979420D02*
X320040D01*
X1061720Y1348740D02*
X1066800D01*
X1018540D02*
X1061720D01*
X1066800Y1353820D01*
X965200Y1252220D02*
X1061720Y1348740D01*
X965200Y1252220D02*
Y1295400D01*
X1577497Y1917700D02*
X1734820D01*
X2484120Y3657600D02*
X2794000D01*
X1905000Y3873500D02*
X2794000D01*
X1285245Y1041405D02*
X1346200D01*
X2279360Y3166440D02*
X2315106Y3202185D01*
X2580020Y3467100D01*
X2239660Y3126740D02*
X2279360Y3166440D01*
X2309005Y3200788D02*
X2558400Y3467100D01*
X2276780Y3166377D02*
X2309005Y3200788D01*
X2239660Y3126740D02*
X2276780Y3166377D01*
X2315106Y3202185D02*
X2318400Y3202940D01*
X2309005Y3200788D02*
X2315106Y3202185D01*
X2301960Y3199174D02*
X2309005Y3200788D01*
X2174240Y3169920D02*
X2301960Y3199174D01*
X1818599Y3274060D02*
X1931101D01*
X2908300Y1155700D02*
Y1752600D01*
X2039620Y751840D02*
X2085340Y706120D01*
X2038711Y752749D02*
X2039620Y751840D01*
X1511818Y2275840D02*
X1645920Y2141738D01*
X1690634Y2097024D01*
X1757680Y751840D02*
X1758589Y752749D01*
X1711960Y706120D02*
X1757680Y751840D01*
X1066099Y3256280D02*
X1178601D01*
X1133638Y2728813D02*
X1348740Y2513711D01*
X1012571Y2849880D02*
X1133638Y2728813D01*
X1348740Y2513711D02*
Y2531694D01*
X751840Y3018297D02*
Y3190240D01*
Y2968366D02*
Y3018297D01*
X889000Y2849880D02*
X1012571D01*
X870326D02*
X889000D01*
X751840Y3018297D02*
X815274D01*
X660400D02*
X751840D01*
X1757680Y751840D02*
X2039620D01*
X1247140D02*
X1757680D01*
X1168400Y1193800D02*
Y1600200D01*
X965200Y1427480D02*
Y1600200D01*
X736600Y1351280D02*
X889000D01*
X693420Y1333500D02*
X736600Y1351280D01*
X533400Y1511300D02*
Y1600200D01*
Y1511300D02*
X546100Y1498600D01*
X589280D01*
X889000Y1351280D02*
X965200Y1427480D01*
X1689100Y2437963D02*
X1860342Y2246366D01*
X1689100Y2437963D02*
Y2551105D01*
X1332697Y2907508D02*
X1689100Y2551105D01*
X1312332Y2907508D02*
X1332697D01*
X1747205Y2123755D02*
Y2133229D01*
Y2123755D02*
X1818640Y2052320D01*
X1905000D01*
Y2182922D01*
X1860342Y2227580D02*
X1905000Y2182922D01*
X1860342Y2227580D02*
Y2246366D01*
X1615440Y3406140D02*
X1649100Y3467740D01*
X1487114Y3403600D02*
X1615440Y3406140D01*
X1255974Y3634740D02*
X1487114Y3403600D01*
X1255974Y3634740D02*
Y3660140D01*
X254000Y2298700D02*
X421640D01*
X439420Y2316480D01*
X581660D01*
X640080Y2258060D01*
X984621D01*
X1029492Y2302932D01*
X965200Y889000D02*
Y939800D01*
X1066800Y1041400D01*
X1158240D01*
X1209040Y1092200D01*
Y1163320D01*
X1409700Y1363980D01*
X1668780D01*
X1942729Y1090031D01*
X1987941Y1014562D01*
X2152818D01*
X2438400Y728980D01*
Y469900D02*
Y728980D01*
Y469900D02*
X2743200Y165100D01*
X2844800D01*
X2908300Y228600D01*
Y419100D01*
X2794000Y533400D02*
X2908300Y419100D01*
X1879600Y1498600D02*
Y1600200D01*
Y1498600D02*
X1943100Y1435100D01*
X2208850D01*
Y1189350D02*
Y1435100D01*
Y1189350D02*
X2540000Y858200D01*
Y787400D02*
Y858200D01*
Y787400D02*
X2794000Y533400D01*
X965200Y1193800D02*
Y1252220D01*
X1066800Y1353820D02*
Y1714500D01*
X1379220D01*
X1678940Y1414780D01*
X1823720D01*
X1855993Y1382507D01*
X2158050D01*
Y1110930D02*
Y1382507D01*
Y1110930D02*
X2489200Y779780D01*
Y584200D02*
Y779780D01*
Y584200D02*
X2794000Y279400D01*
X1424783Y1849120D02*
X1955800D01*
X1368903Y1905000D02*
X1424783Y1849120D01*
X1368903Y1905000D02*
Y1963522D01*
X1501140Y2997200D02*
Y3027680D01*
X1534262Y2964078D02*
X1577497D01*
X2794000Y3835400D02*
Y3873500D01*
X1549400Y3517900D02*
X1905000Y3873500D01*
X1549400Y3507740D02*
Y3517900D01*
X1501140Y2997200D02*
X1534262Y2964078D01*
X1229004Y3103977D02*
X1368903Y2964078D01*
X1092200Y3103977D02*
X1229004D01*
X982980Y3213197D02*
X1092200Y3103977D01*
X982980Y3213197D02*
Y3683000D01*
X881380Y3784600D02*
X982980Y3683000D01*
X645160Y3784600D02*
X881380D01*
X543560Y3683000D02*
X645160Y3784600D01*
X190500Y3683000D02*
X543560D01*
X37033Y3529533D02*
X190500Y3683000D01*
X37033Y178867D02*
Y3529533D01*
Y178867D02*
X114300Y101600D01*
X736600D01*
X914400Y279400D01*
X1758589Y752749D02*
X2038711D01*
X1162238Y474980D02*
X2085340D01*
X1463040Y1211580D02*
X1671320Y1003300D01*
X2558400Y3467100D02*
Y3527400D01*
X2794000Y1041400D02*
X2908300Y1155700D01*
X2819400Y3467100D02*
X2908300Y3378200D01*
X2580020Y3467100D02*
X2819400D01*
X2174240Y3126740D02*
X2239660D01*
X1821180Y2378304D02*
Y2463800D01*
Y2378304D02*
X1896552Y2302932D01*
X2358390Y1233170D02*
Y1273810D01*
X2286000Y1346200D02*
X2358390Y1273810D01*
X2286000Y1346200D02*
Y1600200D01*
X2082800D02*
Y1832737D01*
X2076577Y1838960D02*
X2082800Y1832737D01*
X2076577Y1838960D02*
Y1939417D01*
X2184400Y2047240D01*
X1882140Y652780D02*
X1884680Y650240D01*
X629920Y652780D02*
X1882140D01*
X546100Y568960D02*
X629920Y652780D01*
X546100Y457200D02*
Y568960D01*
X495300Y406400D02*
X546100Y457200D01*
X165100Y406400D02*
X495300D01*
X139700Y431800D02*
X165100Y406400D01*
X139700Y431800D02*
Y660400D01*
X254000Y774700D01*
X1199195Y2112863D02*
Y2133229D01*
X1141192Y2054860D02*
X1199195Y2112863D01*
X802640Y2054860D02*
X1141192D01*
X139700Y2717800D02*
X165100Y2692400D01*
X139700Y3378200D02*
X194803Y3433303D01*
X533400Y1193800D02*
Y1397000D01*
X1117600Y848360D02*
Y889000D01*
X1074420Y805180D02*
X1117600Y848360D01*
X460172Y805180D02*
X1074420D01*
X373380Y891972D02*
X460172Y805180D01*
X373380Y891972D02*
Y1092200D01*
X297180Y1168400D02*
X373380Y1092200D01*
X165100Y1168400D02*
X297180D01*
X139700Y1193800D02*
X165100Y1168400D01*
X139700Y1193800D02*
Y2108200D01*
X195580Y2164080D01*
X457200D01*
X497840Y2204720D01*
Y2214880D01*
X736600Y1511300D02*
X795020Y1452880D01*
X736600Y1511300D02*
Y1600200D01*
X1634068Y2020092D02*
X1703441Y1950720D01*
X1958340D01*
X2082800Y2075180D01*
Y2176780D01*
X1577497Y1917700D02*
Y1963522D01*
X1734820Y1917700D02*
X1767840Y1950720D01*
X2016760D01*
Y2148840D01*
X2260600D01*
X2286000Y2123440D01*
Y1897380D02*
Y2123440D01*
X2260600Y1871980D02*
X2286000Y1897380D01*
X2179320Y1871980D02*
X2260600D01*
X1312332Y1999727D02*
Y2020092D01*
X1268349Y1955744D02*
X1312332Y1999727D01*
X1150620Y1955744D02*
X1268349D01*
X1104844Y2001520D02*
X1150620Y1955744D01*
X894080Y2001520D02*
X1104844D01*
X845820Y1953260D02*
X894080Y2001520D01*
X599440Y1953260D02*
X845820D01*
X965200Y1295400D02*
X1018540Y1348740D01*
X254000Y3568700D02*
X317500Y3632200D01*
X779780D01*
X830580Y3683000D01*
X2399680Y3708400D02*
X3004820D01*
X2318400Y3627120D02*
X2399680Y3708400D01*
X2318400Y3527400D02*
Y3627120D01*
X1983847Y576580D02*
X2260600D01*
X1955907Y548640D02*
X1983847Y576580D01*
X1533230Y548640D02*
X1955907D01*
X1479890Y601980D02*
X1533230Y548640D01*
X2260600Y576580D02*
X2336800Y652780D01*
X789239Y601980D02*
X1479890D01*
X662239Y474980D02*
X789239Y601980D01*
X393700Y609600D02*
Y635000D01*
X513080Y754380D01*
X1150620D01*
X1211575Y815335D01*
Y967735D01*
X1285245Y1041405D01*
X1346200D02*
Y1092200D01*
X2032000Y279400D02*
Y421640D01*
X2085340Y474980D01*
X1198880Y703580D02*
X1247140Y751840D01*
X584236Y703580D02*
X1198880D01*
X495300Y614644D02*
X584236Y703580D01*
X495300Y533400D02*
Y614644D01*
X469900Y508000D02*
X495300Y533400D01*
X266700Y508000D02*
X469900D01*
X254000Y520700D02*
X266700Y508000D01*
X254000Y1790700D02*
X518160Y2054860D01*
X584200D01*
X685800Y2156460D01*
X866140D01*
X904240Y2118360D01*
X1087120D01*
X1142629Y2173869D01*
Y2189795D01*
X254000Y2044700D02*
X314960Y2105660D01*
X533400D01*
X635000Y2207260D01*
X952500D01*
X990600Y2169160D01*
X1028715D01*
X1086058Y2226503D01*
Y2246366D01*
X254000Y2552700D02*
X439420Y2367280D01*
X642463D01*
X650240Y2359503D01*
X972922D01*
X1086058Y2681234D02*
X1176020Y2591272D01*
Y2537460D02*
Y2591272D01*
X901446Y1899920D02*
X1051560D01*
X853186Y1851660D02*
X901446Y1899920D01*
X492760Y1851660D02*
X853186D01*
X368300Y1727200D02*
X492760Y1851660D01*
X368300Y1397000D02*
Y1727200D01*
X254000Y1282700D02*
X368300Y1397000D01*
X546100Y3853180D02*
X977900D01*
X1026160Y3901440D01*
X1092200D01*
X1150620Y3843020D01*
Y3566160D02*
Y3843020D01*
Y3566160D02*
X1231900Y3484880D01*
X1023620Y3002280D02*
X1124783D01*
X1255766Y2871297D01*
Y2850942D02*
Y2871297D01*
X358140Y2692400D02*
X548640Y2501900D01*
X165100Y2692400D02*
X358140D01*
X139700Y2717800D02*
Y3378200D01*
X194803Y3433303D02*
X660400D01*
X1772920Y1600200D02*
X1879600D01*
X1701800Y1671320D02*
X1772920Y1600200D01*
X1302548Y2123440D02*
X1478280D01*
X1255766Y2076658D02*
X1302548Y2123440D01*
X533400Y889000D02*
Y1041400D01*
X431800Y1143000D02*
X533400Y1041400D01*
X431800Y1143000D02*
Y1714500D01*
X490220Y1772920D01*
X1808480D01*
X1861820Y1719580D01*
X1955800D01*
X1981200Y1694180D01*
Y1485900D02*
Y1694180D01*
Y1485900D02*
X2184400D01*
Y1716369D01*
X2336800Y1868769D01*
Y2440940D01*
X2212340Y2565400D02*
X2336800Y2440940D01*
X339659Y152400D02*
X662239Y474980D01*
X160020Y152400D02*
X339659D01*
X88900Y223520D02*
X160020Y152400D01*
X88900Y223520D02*
Y863600D01*
X254000Y1028700D01*
Y2806700D02*
X609600D01*
X848203Y2568097D01*
X972922D01*
X1450340Y2379980D02*
Y2543226D01*
X1199195Y2794371D02*
X1450340Y2543226D01*
X1346200Y939800D02*
X1534160D01*
X1590040Y883920D01*
X1770380D01*
X1800860Y914400D01*
Y1087120D01*
X2032000Y1135380D02*
X2044700Y1122680D01*
X2032000Y1135380D02*
Y1269401D01*
X815274Y3018297D02*
X861771Y2971800D01*
Y2877109D02*
Y2971800D01*
Y2877109D02*
X889000Y2849880D01*
X1348740Y2311400D02*
X1384300Y2275840D01*
X1690634Y2076658D02*
Y2097024D01*
X751840Y2968366D02*
X870326Y2849880D01*
X1348740Y2311400D02*
Y2513711D01*
X1384300Y2275840D02*
X1511818D01*
X1142629Y2737805D02*
X1348740Y2531694D01*
X1973478Y2359503D02*
X2097883D01*
X2108200Y2369820D01*
X2133600Y3380740D02*
X2286000D01*
X2318400Y3413140D01*
Y3527400D01*
X912241Y474980D02*
X1028700Y358521D01*
Y203200D02*
Y358521D01*
Y203200D02*
X1117600Y114300D01*
X2895600D01*
X2959100Y177800D01*
Y3416300D01*
X2794000Y3581400D02*
X2959100Y3416300D01*
X1178839Y2794371D02*
X1199195D01*
X1072530Y2900680D02*
X1178839Y2794371D01*
X965200Y2900680D02*
X1072530D01*
X922020Y2943860D02*
X965200Y2900680D01*
X922020Y2943860D02*
Y3233420D01*
X863600Y3291840D02*
X922020Y3233420D01*
X368300Y3291840D02*
X863600D01*
X322580Y3246120D02*
X368300Y3291840D01*
X254000Y3314700D02*
X322580Y3246120D01*
X2489200Y1600200D02*
X2682240D01*
X2771140Y1689100D01*
X2844800D01*
X2908300Y1752600D01*
Y3378200D01*
X1357818Y279400D02*
X2032000D01*
X1162238Y474980D02*
X1357818Y279400D01*
X1747205Y2794371D02*
X1797634Y2844800D01*
X1938020D01*
X1965960Y2872740D01*
X2651760D01*
X2750820Y2971800D01*
Y3030220D01*
X2794000Y3073400D01*
X1860342Y2681234D02*
X1875348D01*
X1937314Y2743200D01*
X2039584D01*
X2067524Y2771140D01*
X2468880D01*
X2674620Y2565400D01*
X2794000D01*
X1916908Y2624668D02*
X1984639Y2692400D01*
X2090384D01*
X2118324Y2720340D01*
X2385060D01*
X2794000Y2311400D01*
X1738600Y3162300D02*
Y3258800D01*
X1258600Y3162300D02*
X1738600D01*
X1258600D02*
Y3258800D01*
X1896552Y2302932D02*
X1916908D01*
X1788160Y2997200D02*
X1815658Y3024698D01*
X2083242D01*
X2133600Y2974340D01*
X2406548D01*
X2558400Y3126191D01*
Y3127400D01*
X1117600Y1193800D02*
X1168400D01*
X1738600Y3162300D02*
X1958340D01*
X2021840Y3225800D01*
Y3487420D01*
X2240280Y3705860D01*
X2794000Y3581400D02*
Y3657600D01*
X2458720Y3632200D02*
X2484120Y3657600D01*
X2458720Y3446780D02*
Y3632200D01*
X2288540Y3276600D02*
X2458720Y3446780D01*
X2174240Y3276600D02*
X2288540D01*
X1996440Y3098800D02*
X2174240Y3276600D01*
X1711960Y3098800D02*
X1996440D01*
X1686560Y3073400D02*
X1711960Y3098800D01*
X1686560Y2959999D02*
Y3073400D01*
X1634068Y2907508D02*
X1686560Y2959999D01*
X254000Y2979420D02*
Y3060700D01*
X320040Y2979420D02*
X441315Y2858145D01*
X775650D01*
X1009127Y2624668D01*
X1029492D01*
X685800Y889000D02*
X965200D01*
X685800Y1193800D02*
X965200D01*
X1973478Y2568097D02*
X2039620D01*
X2141063Y2669540D01*
X2286000D01*
X2344263Y2611277D01*
Y2507137D02*
Y2611277D01*
Y2507137D02*
X2794000Y2057400D01*
X1803771Y2737805D02*
X1820286D01*
X1876481Y2794000D01*
X1988784D01*
X2016724Y2821940D01*
X2599060D01*
X2601600Y2819400D01*
X2794000D01*
X1690634Y2850942D02*
X1735292Y2895600D01*
X1843527D01*
X1871467Y2923540D01*
X2580640D01*
X2679700Y3022600D01*
Y3213100D01*
X2794000Y3327400D01*
X2318400Y3127400D02*
Y3202940D01*
X2174240Y3126740D02*
Y3169920D01*
X1931101Y3316798D02*
Y3733800D01*
Y3274060D02*
Y3316798D01*
X1818599Y3258800D02*
Y3274060D01*
X1066099Y3316798D02*
Y3733800D01*
Y3256280D02*
Y3316798D01*
X1178601Y3256280D02*
Y3258800D01*
X1803771Y2189795D02*
Y2210161D01*
X1735552Y2247900D02*
X1803771Y2210161D01*
X1676400Y2247900D02*
X1735552D01*
X1645920Y2217420D02*
X1676400Y2247900D01*
X1645920Y2141738D02*
Y2217420D01*
D21*
X1787601Y3365800D02*
D03*
X1209599D02*
D03*
D22*
X1931101Y3316798D02*
D03*
X1066099D02*
D03*
D23*
X1931101Y3733800D02*
D03*
X1066099D02*
D03*
D24*
X2794000Y3835400D02*
D03*
Y3581400D02*
D03*
Y3327400D02*
D03*
Y3073400D02*
D03*
Y2819400D02*
D03*
Y2565400D02*
D03*
Y2311400D02*
D03*
Y2057400D02*
D03*
Y1803400D02*
D03*
Y1549400D02*
D03*
Y1295400D02*
D03*
Y1041400D02*
D03*
Y787400D02*
D03*
Y533400D02*
D03*
Y279400D02*
D03*
X254000Y3822700D02*
D03*
Y3568700D02*
D03*
Y3314700D02*
D03*
Y3060700D02*
D03*
Y2806700D02*
D03*
Y2552700D02*
D03*
Y2298700D02*
D03*
Y2044700D02*
D03*
Y1790700D02*
D03*
Y1536700D02*
D03*
Y1282700D02*
D03*
Y1028700D02*
D03*
Y774700D02*
D03*
Y520700D02*
D03*
Y266700D02*
D03*
X914400Y279400D02*
D03*
X1164402D02*
D03*
X1162238Y474980D02*
D03*
X912241D02*
D03*
X664398Y279400D02*
D03*
X662239Y474980D02*
D03*
D25*
X693420Y1333500D02*
D03*
X1905000Y2052320D02*
D03*
X1255974Y3660140D02*
D03*
X1955800Y1849120D02*
D03*
X1501140Y3027680D02*
D03*
X1549400Y3507740D02*
D03*
X2085340Y706120D02*
D03*
Y474980D02*
D03*
X1671320Y1003300D02*
D03*
X1463040Y1211580D02*
D03*
X1821180Y2463800D02*
D03*
X2358390Y1233170D02*
D03*
X2184400Y2047240D02*
D03*
X1884680Y650240D02*
D03*
X802640Y2054860D02*
D03*
X548640Y2501900D02*
D03*
X533400Y1397000D02*
D03*
X497840Y2214880D02*
D03*
X795020Y1452880D02*
D03*
X2082800Y2176780D02*
D03*
X2179320Y1871980D02*
D03*
X599440Y1953260D02*
D03*
X1066800Y1348740D02*
D03*
X830580Y3683000D02*
D03*
X3004820Y3708400D02*
D03*
X2336800Y652780D02*
D03*
X393700Y609600D02*
D03*
X1176020Y2537460D02*
D03*
X1051560Y1899920D02*
D03*
X546100Y3853180D02*
D03*
X1231900Y3484880D02*
D03*
X1023620Y3002280D02*
D03*
X1701800Y1671320D02*
D03*
X1478280Y2123440D02*
D03*
X2212340Y2565400D02*
D03*
X1450340Y2379980D02*
D03*
X1800860Y1087120D02*
D03*
X2044700Y1122680D02*
D03*
X751840Y3190240D02*
D03*
X2108200Y2369820D02*
D03*
X2133600Y3380740D02*
D03*
X2174240Y3126740D02*
D03*
X1788160Y2997200D02*
D03*
X2240280Y3705860D02*
D03*
%TF.MD5,4e80e10e87678f4991376f6ceae458f4*%
M02*
