%TF.GenerationSoftware,Altium Limited,Altium Designer,24.7.2 (38)*%
G04 Layer_Color=0*
%FSLAX45Y45*%
%MOMM*%
%TF.SameCoordinates,C77648C0-80D8-424D-8617-BB5A92A82554*%
%TF.FilePolarity,Positive*%
%TF.FileFunction,Plated,1,2,PTH,Drill*%
%TF.Part,Single*%
G01*
G75*
%TA.AperFunction,ComponentDrill*%
%ADD60O,0.60000X1.70000*%
%ADD61O,0.60000X1.40000*%
%ADD62C,0.76200*%
%TA.AperFunction,ViaDrill,NotFilled*%
%ADD63C,0.71120*%
D60*
X1931101Y3316798D02*
D03*
X1066099D02*
D03*
D61*
X1931101Y3733800D02*
D03*
X1066099D02*
D03*
D62*
X2794000Y3835400D02*
D03*
Y3581400D02*
D03*
Y3327400D02*
D03*
Y3073400D02*
D03*
Y2819400D02*
D03*
Y2565400D02*
D03*
Y2311400D02*
D03*
Y2057400D02*
D03*
Y1803400D02*
D03*
Y1549400D02*
D03*
Y1295400D02*
D03*
Y1041400D02*
D03*
Y787400D02*
D03*
Y533400D02*
D03*
Y279400D02*
D03*
X254000Y3822700D02*
D03*
Y3568700D02*
D03*
Y3314700D02*
D03*
Y3060700D02*
D03*
Y2806700D02*
D03*
Y2552700D02*
D03*
Y2298700D02*
D03*
Y2044700D02*
D03*
Y1790700D02*
D03*
Y1536700D02*
D03*
Y1282700D02*
D03*
Y1028700D02*
D03*
Y774700D02*
D03*
Y520700D02*
D03*
Y266700D02*
D03*
X914400Y279400D02*
D03*
X1164402D02*
D03*
X1162238Y474980D02*
D03*
X912241D02*
D03*
X664398Y279400D02*
D03*
X662239Y474980D02*
D03*
D63*
X693420Y1333500D02*
D03*
X1905000Y2052320D02*
D03*
X1255974Y3660140D02*
D03*
X1955800Y1849120D02*
D03*
X1501140Y3027680D02*
D03*
X1549400Y3507740D02*
D03*
X2085340Y706120D02*
D03*
Y474980D02*
D03*
X1671320Y1003300D02*
D03*
X1463040Y1211580D02*
D03*
X1821180Y2463800D02*
D03*
X2358390Y1233170D02*
D03*
X2184400Y2047240D02*
D03*
X1884680Y650240D02*
D03*
X802640Y2054860D02*
D03*
X548640Y2501900D02*
D03*
X533400Y1397000D02*
D03*
X497840Y2214880D02*
D03*
X795020Y1452880D02*
D03*
X2082800Y2176780D02*
D03*
X2179320Y1871980D02*
D03*
X599440Y1953260D02*
D03*
X1066800Y1348740D02*
D03*
X830580Y3683000D02*
D03*
X3004820Y3708400D02*
D03*
X2336800Y652780D02*
D03*
X393700Y609600D02*
D03*
X1176020Y2537460D02*
D03*
X1051560Y1899920D02*
D03*
X546100Y3853180D02*
D03*
X1231900Y3484880D02*
D03*
X1023620Y3002280D02*
D03*
X1701800Y1671320D02*
D03*
X1478280Y2123440D02*
D03*
X2212340Y2565400D02*
D03*
X1450340Y2379980D02*
D03*
X1800860Y1087120D02*
D03*
X2044700Y1122680D02*
D03*
X751840Y3190240D02*
D03*
X2108200Y2369820D02*
D03*
X2133600Y3380740D02*
D03*
X2174240Y3126740D02*
D03*
X1788160Y2997200D02*
D03*
X2240280Y3705860D02*
D03*
%TF.MD5,65633ca977d76cd41839ab800facdb15*%
M02*
