%TF.GenerationSoftware,Altium Limited,Altium Designer,24.7.2 (38)*%
G04 Layer_Color=128*
%FSLAX45Y45*%
%MOMM*%
%TF.SameCoordinates,C77648C0-80D8-424D-8617-BB5A92A82554*%
%TF.FilePolarity,Positive*%
%TF.FileFunction,Paste,Bot*%
%TF.Part,Single*%
G01*
G75*
%TA.AperFunction,SMDPad,CuDef*%
%ADD10R,1.00000X0.90000*%
%ADD26R,1.50000X2.12000*%
%ADD27O,1.65000X0.65000*%
%ADD28R,0.70000X0.80000*%
%ADD29R,9.25000X1.65000*%
%ADD30R,0.90000X1.65000*%
D10*
X2006600Y1346200D02*
D03*
X1854200D02*
D03*
X2514600Y1371600D02*
D03*
X2362200D02*
D03*
X1498600Y1346200D02*
D03*
X1346200D02*
D03*
X2489200Y889000D02*
D03*
X2336800D02*
D03*
X2489200Y508000D02*
D03*
X2336800D02*
D03*
D26*
X2387600Y3166699D02*
D03*
Y3589701D02*
D03*
D27*
X1649100Y1841500D02*
D03*
Y1968500D02*
D03*
Y2095500D02*
D03*
Y2222500D02*
D03*
Y2349500D02*
D03*
Y2476500D02*
D03*
Y2603500D02*
D03*
Y2730500D02*
D03*
X2364100Y1841500D02*
D03*
Y1968500D02*
D03*
Y2095500D02*
D03*
Y2222500D02*
D03*
Y2349500D02*
D03*
Y2476500D02*
D03*
Y2603500D02*
D03*
Y2730500D02*
D03*
D28*
X1076000Y762000D02*
D03*
X956000D02*
D03*
X872800Y1066800D02*
D03*
X752800D02*
D03*
X644200Y3149600D02*
D03*
X524200D02*
D03*
X1558600Y381000D02*
D03*
X1438600D02*
D03*
X1542400Y762000D02*
D03*
X1422400D02*
D03*
X669600D02*
D03*
X549600D02*
D03*
X568000Y1066800D02*
D03*
X448000D02*
D03*
X669600Y3530600D02*
D03*
X549600D02*
D03*
D29*
X914400Y2724201D02*
D03*
D30*
X660400Y1746199D02*
D03*
X914400D02*
D03*
X1168400D02*
D03*
%TF.MD5,7a08d665755765722d869fb678eb805c*%
M02*
