%TF.GenerationSoftware,Altium Limited,Altium Designer,24.7.2 (38)*%
G04 Layer_Color=65535*
%FSLAX45Y45*%
%MOMM*%
%TF.SameCoordinates,C77648C0-80D8-424D-8617-BB5A92A82554*%
%TF.FilePolarity,Positive*%
%TF.FileFunction,Legend,Top*%
%TF.Part,Single*%
G01*
G75*
%TA.AperFunction,NonConductor*%
%ADD31C,0.20000*%
%ADD32C,0.25000*%
%ADD33C,0.60000*%
%ADD34C,0.12700*%
%ADD35C,0.25400*%
D31*
X2193400Y3527400D02*
G03*
X2193400Y3527400I-10000J0D01*
G01*
X1828600Y3133800D02*
G03*
X1828600Y3133800I-10000J0D01*
G01*
X1473200Y2025396D02*
X1911604Y2463800D01*
X1034796D02*
X1473200Y2902204D01*
X1034796Y2463800D02*
X1473200Y2025396D01*
Y2902204D02*
X1911604Y2463800D01*
X932694Y991416D02*
Y1091384D01*
X982677D01*
X999339Y1074723D01*
Y1041400D01*
X982677Y1024739D01*
X932694D01*
X966016D02*
X999339Y991416D01*
X1099306Y1091384D02*
X1065984Y1074723D01*
X1032661Y1041400D01*
Y1008077D01*
X1049323Y991416D01*
X1082645D01*
X1099306Y1008077D01*
Y1024739D01*
X1082645Y1041400D01*
X1032661D01*
X492760Y1005840D02*
Y1105808D01*
X542744D01*
X559405Y1089146D01*
Y1055824D01*
X542744Y1039163D01*
X492760D01*
X526083D02*
X559405Y1005840D01*
X592728Y1089146D02*
X609389Y1105808D01*
X642712D01*
X659373Y1089146D01*
Y1072485D01*
X642712Y1055824D01*
X659373Y1039163D01*
Y1022501D01*
X642712Y1005840D01*
X609389D01*
X592728Y1022501D01*
Y1039163D01*
X609389Y1055824D01*
X592728Y1072485D01*
Y1089146D01*
X609389Y1055824D02*
X642712D01*
X492760Y1310640D02*
Y1410608D01*
X542744D01*
X559405Y1393946D01*
Y1360624D01*
X542744Y1343963D01*
X492760D01*
X526083D02*
X559405Y1310640D01*
X592728Y1327301D02*
X609389Y1310640D01*
X642712D01*
X659373Y1327301D01*
Y1393946D01*
X642712Y1410608D01*
X609389D01*
X592728Y1393946D01*
Y1377285D01*
X609389Y1360624D01*
X659373D01*
X1251207Y1198880D02*
Y1298848D01*
X1301191D01*
X1317852Y1282186D01*
Y1248864D01*
X1301191Y1232203D01*
X1251207D01*
X1284529D02*
X1317852Y1198880D01*
X1351175D02*
X1384497D01*
X1367836D01*
Y1298848D01*
X1351175Y1282186D01*
X1434481D02*
X1451142Y1298848D01*
X1484465D01*
X1501126Y1282186D01*
Y1215541D01*
X1484465Y1198880D01*
X1451142D01*
X1434481Y1215541D01*
Y1282186D01*
X924560Y1310640D02*
Y1410608D01*
X974544D01*
X991205Y1393946D01*
Y1360624D01*
X974544Y1343963D01*
X924560D01*
X957883D02*
X991205Y1310640D01*
X1024528Y1410608D02*
X1091173D01*
Y1393946D01*
X1024528Y1327301D01*
Y1310640D01*
D32*
X1531662Y1905186D02*
G03*
X1531662Y1905186I-12500J0D01*
G01*
D33*
X1503200Y2166815D02*
G03*
X1503200Y2166815I-30000J0D01*
G01*
D34*
X2410399Y3577402D02*
X2466401D01*
X2410399Y3077403D02*
X2466401D01*
X2598400Y3249402D02*
Y3405398D01*
X2278400Y3249402D02*
Y3405398D01*
X1547002Y1259398D02*
X1896999D01*
X1547002Y509402D02*
Y1259398D01*
Y509402D02*
X1767002Y289403D01*
X1896999D01*
X2167001D02*
X2516998D01*
Y1259398D01*
X2166000D02*
X2516998D01*
X1051601Y3448802D02*
Y3616803D01*
Y3850803D02*
Y3993799D01*
X1945599Y3448802D02*
Y3616803D01*
Y3850803D02*
Y3993799D01*
X1051601D02*
X1945599D01*
D35*
X485140Y1915111D02*
Y1762760D01*
X561315D01*
X586707Y1788152D01*
Y1889719D01*
X561315Y1915111D01*
X485140D01*
X637491Y1889719D02*
X662883Y1915111D01*
X713666D01*
X739058Y1889719D01*
Y1864327D01*
X713666Y1838935D01*
X688274D01*
X713666D01*
X739058Y1813543D01*
Y1788152D01*
X713666Y1762760D01*
X662883D01*
X637491Y1788152D01*
X2311433Y3886175D02*
Y3860783D01*
X2362217Y3810000D01*
X2413000Y3860783D01*
Y3886175D01*
X2362217Y3810000D02*
Y3733825D01*
X2463784D02*
X2514567D01*
X2489176D01*
Y3886175D01*
X2463784Y3860783D01*
X914417Y3022600D02*
X889025Y2997208D01*
Y2946425D01*
X914417Y2921033D01*
X939808D01*
X965200Y2946425D01*
Y2997208D01*
X990592Y3022600D01*
X1015983D01*
X1041375Y2997208D01*
Y2946425D01*
X1015983Y2921033D01*
X1041375Y3073384D02*
Y3124167D01*
Y3098776D01*
X889025D01*
X914417Y3073384D01*
X1831340Y1915111D02*
Y1762760D01*
X1907515D01*
X1932907Y1788152D01*
Y1889719D01*
X1907515Y1915111D01*
X1831340D01*
X2085258Y1762760D02*
X1983691D01*
X2085258Y1864327D01*
Y1889719D01*
X2059866Y1915111D01*
X2009083D01*
X1983691Y1889719D01*
X2237740Y1915111D02*
Y1762760D01*
X2313915D01*
X2339307Y1788152D01*
Y1889719D01*
X2313915Y1915111D01*
X2237740D01*
X2390091Y1762760D02*
X2440874D01*
X2415483D01*
Y1915111D01*
X2390091Y1889719D01*
X916940Y1915111D02*
Y1762760D01*
X993115D01*
X1018507Y1788152D01*
Y1889719D01*
X993115Y1915111D01*
X916940D01*
X1145466Y1762760D02*
Y1915111D01*
X1069291Y1838935D01*
X1170858D01*
X1371658Y1574775D02*
Y1422425D01*
X1473225D01*
X1625576Y1549383D02*
X1600184Y1574775D01*
X1549400D01*
X1524008Y1549383D01*
Y1523992D01*
X1549400Y1498600D01*
X1600184D01*
X1625576Y1473208D01*
Y1447817D01*
X1600184Y1422425D01*
X1549400D01*
X1524008Y1447817D01*
X1676359Y1422425D02*
X1727143D01*
X1701751D01*
Y1574775D01*
X1676359Y1549383D01*
X2212000Y1417880D02*
X2296639D01*
X2254320Y1460199D02*
Y1375560D01*
X2232000Y207879D02*
X2316640D01*
X1930441Y2133575D02*
Y2006617D01*
X1955833Y1981225D01*
X2006617D01*
X2032008Y2006617D01*
Y2133575D01*
X2082792Y2108183D02*
X2108184Y2133575D01*
X2158967D01*
X2184359Y2108183D01*
Y2082792D01*
X2158967Y2057400D01*
X2133575D01*
X2158967D01*
X2184359Y2032008D01*
Y2006617D01*
X2158967Y1981225D01*
X2108184D01*
X2082792Y2006617D01*
X863600Y3759175D02*
X812817D01*
X838208D01*
Y3632217D01*
X812817Y3606825D01*
X787425D01*
X762033Y3632217D01*
X914384Y3606825D02*
X965167D01*
X939776D01*
Y3759175D01*
X914384Y3733783D01*
X431833Y3759175D02*
Y3632217D01*
X457225Y3606825D01*
X508008D01*
X533400Y3632217D01*
Y3759175D01*
X584184Y3606825D02*
X634967D01*
X609576D01*
Y3759175D01*
X584184Y3733783D01*
X558841Y761975D02*
Y635017D01*
X584233Y609625D01*
X635017D01*
X660408Y635017D01*
Y761975D01*
X812759D02*
X711192D01*
Y685800D01*
X761975Y711192D01*
X787367D01*
X812759Y685800D01*
Y635017D01*
X787367Y609625D01*
X736584D01*
X711192Y635017D01*
%TF.MD5,e342df7abcd0b2ec7c599e7c5eee9883*%
M02*
