%TF.GenerationSoftware,Altium Limited,Altium Designer,24.7.2 (38)*%
G04 Layer_Color=16711935*
%FSLAX45Y45*%
%MOMM*%
%TF.SameCoordinates,C77648C0-80D8-424D-8617-BB5A92A82554*%
%TF.FilePolarity,Negative*%
%TF.FileFunction,Soldermask,Bot*%
%TF.Part,Single*%
G01*
G75*
%TA.AperFunction,SMDPad,CuDef*%
%ADD36R,1.20320X1.10320*%
%TA.AperFunction,ComponentPad*%
%ADD46C,0.80320*%
%ADD47O,1.10320X2.20320*%
%ADD48O,1.10320X1.90320*%
%ADD49C,1.72720*%
%TA.AperFunction,ViaPad*%
%ADD50C,1.47320*%
%TA.AperFunction,SMDPad,CuDef*%
%ADD51R,1.70320X2.32320*%
%ADD52O,1.85320X0.85320*%
%ADD53R,0.90320X1.00320*%
%ADD54R,9.45320X1.85320*%
%ADD55R,1.10320X1.85320*%
D36*
X2006600Y1346200D02*
D03*
X1854200D02*
D03*
X2514600Y1371600D02*
D03*
X2362200D02*
D03*
X1498600Y1346200D02*
D03*
X1346200D02*
D03*
X2489200Y889000D02*
D03*
X2336800D02*
D03*
X2489200Y508000D02*
D03*
X2336800D02*
D03*
D46*
X1787601Y3365800D02*
D03*
X1209599D02*
D03*
D47*
X1931101Y3316798D02*
D03*
X1066099D02*
D03*
D48*
X1931101Y3733800D02*
D03*
X1066099D02*
D03*
D49*
X2794000Y3835400D02*
D03*
Y3581400D02*
D03*
Y3327400D02*
D03*
Y3073400D02*
D03*
Y2819400D02*
D03*
Y2565400D02*
D03*
Y2311400D02*
D03*
Y2057400D02*
D03*
Y1803400D02*
D03*
Y1549400D02*
D03*
Y1295400D02*
D03*
Y1041400D02*
D03*
Y787400D02*
D03*
Y533400D02*
D03*
Y279400D02*
D03*
X254000Y3822700D02*
D03*
Y3568700D02*
D03*
Y3314700D02*
D03*
Y3060700D02*
D03*
Y2806700D02*
D03*
Y2552700D02*
D03*
Y2298700D02*
D03*
Y2044700D02*
D03*
Y1790700D02*
D03*
Y1536700D02*
D03*
Y1282700D02*
D03*
Y1028700D02*
D03*
Y774700D02*
D03*
Y520700D02*
D03*
Y266700D02*
D03*
X914400Y279400D02*
D03*
X1164402D02*
D03*
X1162238Y474980D02*
D03*
X912241D02*
D03*
X664398Y279400D02*
D03*
X662239Y474980D02*
D03*
D50*
X693420Y1333500D02*
D03*
X1905000Y2052320D02*
D03*
X1255974Y3660140D02*
D03*
X1955800Y1849120D02*
D03*
X1501140Y3027680D02*
D03*
X1549400Y3507740D02*
D03*
X2085340Y706120D02*
D03*
Y474980D02*
D03*
X1671320Y1003300D02*
D03*
X1463040Y1211580D02*
D03*
X1821180Y2463800D02*
D03*
X2358390Y1233170D02*
D03*
X2184400Y2047240D02*
D03*
X1884680Y650240D02*
D03*
X802640Y2054860D02*
D03*
X548640Y2501900D02*
D03*
X533400Y1397000D02*
D03*
X497840Y2214880D02*
D03*
X795020Y1452880D02*
D03*
X2082800Y2176780D02*
D03*
X2179320Y1871980D02*
D03*
X599440Y1953260D02*
D03*
X1066800Y1348740D02*
D03*
X830580Y3683000D02*
D03*
X3004820Y3708400D02*
D03*
X2336800Y652780D02*
D03*
X393700Y609600D02*
D03*
X1176020Y2537460D02*
D03*
X1051560Y1899920D02*
D03*
X546100Y3853180D02*
D03*
X1231900Y3484880D02*
D03*
X1023620Y3002280D02*
D03*
X1701800Y1671320D02*
D03*
X1478280Y2123440D02*
D03*
X2212340Y2565400D02*
D03*
X1450340Y2379980D02*
D03*
X1800860Y1087120D02*
D03*
X2044700Y1122680D02*
D03*
X751840Y3190240D02*
D03*
X2108200Y2369820D02*
D03*
X2133600Y3380740D02*
D03*
X2174240Y3126740D02*
D03*
X1788160Y2997200D02*
D03*
X2240280Y3705860D02*
D03*
D51*
X2387600Y3166699D02*
D03*
Y3589701D02*
D03*
D52*
X1649100Y1841500D02*
D03*
Y1968500D02*
D03*
Y2095500D02*
D03*
Y2222500D02*
D03*
Y2349500D02*
D03*
Y2476500D02*
D03*
Y2603500D02*
D03*
Y2730500D02*
D03*
X2364100Y1841500D02*
D03*
Y1968500D02*
D03*
Y2095500D02*
D03*
Y2222500D02*
D03*
Y2349500D02*
D03*
Y2476500D02*
D03*
Y2603500D02*
D03*
Y2730500D02*
D03*
D53*
X1076000Y762000D02*
D03*
X956000D02*
D03*
X872800Y1066800D02*
D03*
X752800D02*
D03*
X644200Y3149600D02*
D03*
X524200D02*
D03*
X1558600Y381000D02*
D03*
X1438600D02*
D03*
X1542400Y762000D02*
D03*
X1422400D02*
D03*
X669600D02*
D03*
X549600D02*
D03*
X568000Y1066800D02*
D03*
X448000D02*
D03*
X669600Y3530600D02*
D03*
X549600D02*
D03*
D54*
X914400Y2724201D02*
D03*
D55*
X660400Y1746199D02*
D03*
X914400D02*
D03*
X1168400D02*
D03*
%TF.MD5,707e1ba2bd31b2aa1c87beb829c376c3*%
M02*
