%TF.GenerationSoftware,Altium Limited,Altium Designer,24.7.2 (38)*%
G04 Layer_Color=32896*
%FSLAX45Y45*%
%MOMM*%
%TF.SameCoordinates,C77648C0-80D8-424D-8617-BB5A92A82554*%
%TF.FilePolarity,Positive*%
%TF.FileFunction,Legend,Bot*%
%TF.Part,Single*%
G01*
G75*
%TA.AperFunction,NonConductor*%
%ADD31C,0.20000*%
%ADD32C,0.25000*%
%ADD33C,0.60000*%
%ADD34C,0.12700*%
%ADD35C,0.25400*%
D31*
X2397600Y2978200D02*
G03*
X2397600Y2978200I-10000J0D01*
G01*
X1771599Y1761002D02*
X2241601D01*
X1771599Y2810998D02*
X2241601D01*
X1771599Y1761002D02*
Y2810998D01*
X2241601Y1761002D02*
Y2810998D01*
X439400Y1860199D02*
Y2610201D01*
X1389400Y1860199D02*
Y2610201D01*
X439400D02*
X1389400D01*
X439400Y1860199D02*
X1389400D01*
X2067560Y1488440D02*
Y1640791D01*
X1991385D01*
X1965993Y1615399D01*
Y1564615D01*
X1991385Y1539223D01*
X2067560D01*
X2016777D02*
X1965993Y1488440D01*
X1915209Y1615399D02*
X1889817Y1640791D01*
X1839034D01*
X1813642Y1615399D01*
Y1590007D01*
X1839034Y1564615D01*
X1864426D01*
X1839034D01*
X1813642Y1539223D01*
Y1513832D01*
X1839034Y1488440D01*
X1889817D01*
X1915209Y1513832D01*
X1082073Y1018499D02*
X1107465Y1043891D01*
X1158248D01*
X1183640Y1018499D01*
Y916932D01*
X1158248Y891540D01*
X1107465D01*
X1082073Y916932D01*
X929722Y1043891D02*
X1031289D01*
Y967715D01*
X980506Y993107D01*
X955114D01*
X929722Y967715D01*
Y916932D01*
X955114Y891540D01*
X1005897D01*
X1031289Y916932D01*
X878873Y1323299D02*
X904265Y1348691D01*
X955048D01*
X980440Y1323299D01*
Y1221732D01*
X955048Y1196340D01*
X904265D01*
X878873Y1221732D01*
X726522Y1196340D02*
X828089D01*
X726522Y1297907D01*
Y1323299D01*
X751914Y1348691D01*
X802697D01*
X828089Y1323299D01*
X2524760Y1513840D02*
Y1666191D01*
X2448585D01*
X2423193Y1640799D01*
Y1590015D01*
X2448585Y1564623D01*
X2524760D01*
X2473977D02*
X2423193Y1513840D01*
X2372409D02*
X2321626D01*
X2347017D01*
Y1666191D01*
X2372409Y1640799D01*
X1559560Y1488440D02*
Y1640791D01*
X1483385D01*
X1457993Y1615399D01*
Y1564615D01*
X1483385Y1539223D01*
X1559560D01*
X1508777D02*
X1457993Y1488440D01*
X1305642Y1640791D02*
X1407209D01*
Y1564615D01*
X1356426Y1590007D01*
X1331034D01*
X1305642Y1564615D01*
Y1513832D01*
X1331034Y1488440D01*
X1381817D01*
X1407209Y1513832D01*
X650273Y3406099D02*
X675665Y3431491D01*
X726448D01*
X751840Y3406099D01*
Y3304532D01*
X726448Y3279140D01*
X675665D01*
X650273Y3304532D01*
X523314Y3279140D02*
Y3431491D01*
X599489Y3355315D01*
X497922D01*
X1564673Y637499D02*
X1590065Y662891D01*
X1640848D01*
X1666240Y637499D01*
Y535932D01*
X1640848Y510540D01*
X1590065D01*
X1564673Y535932D01*
X1513889Y637499D02*
X1488497Y662891D01*
X1437714D01*
X1412322Y637499D01*
Y612107D01*
X1437714Y586715D01*
X1412322Y561323D01*
Y535932D01*
X1437714Y510540D01*
X1488497D01*
X1513889Y535932D01*
Y561323D01*
X1488497Y586715D01*
X1513889Y612107D01*
Y637499D01*
X1488497Y586715D02*
X1437714D01*
X2550160Y1031240D02*
Y1183591D01*
X2473985D01*
X2448593Y1158199D01*
Y1107415D01*
X2473985Y1082023D01*
X2550160D01*
X2499377D02*
X2448593Y1031240D01*
X2321634D02*
Y1183591D01*
X2397809Y1107415D01*
X2296242D01*
X2550160Y650240D02*
Y802591D01*
X2473985D01*
X2448593Y777199D01*
Y726415D01*
X2473985Y701023D01*
X2550160D01*
X2499377D02*
X2448593Y650240D01*
X2296242D02*
X2397809D01*
X2296242Y751807D01*
Y777199D01*
X2321634Y802591D01*
X2372417D01*
X2397809Y777199D01*
X1549433Y1018499D02*
X1574825Y1043891D01*
X1625608D01*
X1651000Y1018499D01*
Y916932D01*
X1625608Y891540D01*
X1574825D01*
X1549433Y916932D01*
X1498649Y1043891D02*
X1397082D01*
Y1018499D01*
X1498649Y916932D01*
Y891540D01*
X675673Y1018499D02*
X701065Y1043891D01*
X751848D01*
X777240Y1018499D01*
Y916932D01*
X751848Y891540D01*
X701065D01*
X675673Y916932D01*
X523322Y1043891D02*
X574106Y1018499D01*
X624889Y967715D01*
Y916932D01*
X599497Y891540D01*
X548714D01*
X523322Y916932D01*
Y942323D01*
X548714Y967715D01*
X624889D01*
X523273Y1323299D02*
X548665Y1348691D01*
X599448D01*
X624840Y1323299D01*
Y1221732D01*
X599448Y1196340D01*
X548665D01*
X523273Y1221732D01*
X472489Y1196340D02*
X421706D01*
X447097D01*
Y1348691D01*
X472489Y1323299D01*
X675673Y3787099D02*
X701065Y3812491D01*
X751848D01*
X777240Y3787099D01*
Y3685532D01*
X751848Y3660140D01*
X701065D01*
X675673Y3685532D01*
X624889Y3787099D02*
X599497Y3812491D01*
X548714D01*
X523322Y3787099D01*
Y3761707D01*
X548714Y3736315D01*
X574106D01*
X548714D01*
X523322Y3710923D01*
Y3685532D01*
X548714Y3660140D01*
X599497D01*
X624889Y3685532D01*
D32*
X2376600Y2818000D02*
G03*
X2376600Y2818000I-12500J0D01*
G01*
X1280900Y1746200D02*
G03*
X1280900Y1746200I-12500J0D01*
G01*
D33*
X2171600Y2711000D02*
G03*
X2171600Y2711000I-30000J0D01*
G01*
D34*
X2494600Y3161701D02*
X2515601D01*
X2259599D02*
X2280600D01*
X2494600Y3594699D02*
X2515601D01*
X2259599D02*
X2280600D01*
X2259599Y3161701D02*
Y3594699D01*
X2515601Y3161701D02*
Y3594699D01*
D35*
X2514559Y3886175D02*
Y3733825D01*
X2438383D01*
X2412992Y3759217D01*
Y3860783D01*
X2438383Y3886175D01*
X2514559D01*
X2260641D02*
X2362208D01*
Y3810000D01*
X2311425Y3835392D01*
X2286033D01*
X2260641Y3810000D01*
Y3759217D01*
X2286033Y3733825D01*
X2336816D01*
X2362208Y3759217D01*
X1818640Y3070811D02*
Y2943852D01*
X1793248Y2918460D01*
X1742465D01*
X1717073Y2943852D01*
Y3070811D01*
X1590114Y2918460D02*
Y3070811D01*
X1666289Y2994635D01*
X1564722D01*
X690880Y3060651D02*
Y2933692D01*
X665488Y2908300D01*
X614705D01*
X589313Y2933692D01*
Y3060651D01*
X436962Y2908300D02*
X538529D01*
X436962Y3009867D01*
Y3035259D01*
X462354Y3060651D01*
X513137D01*
X538529Y3035259D01*
%TF.MD5,eaee44f2e83226586bac328a8470fd8d*%
M02*
