%TF.GenerationSoftware,Altium Limited,Altium Designer,24.7.2 (38)*%
G04 Layer_Color=8421504*
%FSLAX45Y45*%
%MOMM*%
%TF.SameCoordinates,C77648C0-80D8-424D-8617-BB5A92A82554*%
%TF.FilePolarity,Positive*%
%TF.FileFunction,Paste,Top*%
%TF.Part,Single*%
G01*
G75*
%TA.AperFunction,SMDPad,CuDef*%
%ADD10R,1.00000X0.90000*%
%ADD11R,1.27000X1.52400*%
%ADD12R,0.90000X1.00000*%
%ADD13R,1.20000X1.80000*%
%ADD14R,3.00000X2.00000*%
%ADD15R,1.70000X1.50000*%
G04:AMPARAMS|DCode=16|XSize=0.55mm|YSize=1.55mm|CornerRadius=0mm|HoleSize=0mm|Usage=FLASHONLY|Rotation=225.000|XOffset=0mm|YOffset=0mm|HoleType=Round|Shape=Round|*
%AMOVALD16*
21,1,1.00000,0.55000,0.00000,0.00000,315.0*
1,1,0.55000,-0.35355,0.35355*
1,1,0.55000,0.35355,-0.35355*
%
%ADD16OVALD16*%

G04:AMPARAMS|DCode=17|XSize=0.55mm|YSize=1.55mm|CornerRadius=0mm|HoleSize=0mm|Usage=FLASHONLY|Rotation=135.000|XOffset=0mm|YOffset=0mm|HoleType=Round|Shape=Round|*
%AMOVALD17*
21,1,1.00000,0.55000,0.00000,0.00000,225.0*
1,1,0.55000,0.35355,0.35355*
1,1,0.55000,-0.35355,-0.35355*
%
%ADD17OVALD17*%

%TA.AperFunction,ConnectorPad*%
%ADD18R,0.60000X1.14000*%
%ADD19R,0.30000X1.14000*%
D10*
X965200Y889000D02*
D03*
X1117600D02*
D03*
X533400D02*
D03*
X685800D02*
D03*
X533400Y1193800D02*
D03*
X685800D02*
D03*
X965200D02*
D03*
X1117600D02*
D03*
D11*
X736600Y1600200D02*
D03*
X533400D02*
D03*
X2082800D02*
D03*
X1879600D02*
D03*
X2489200D02*
D03*
X2286000D02*
D03*
X1168400D02*
D03*
X965200D02*
D03*
D12*
X1346200Y939800D02*
D03*
Y1092200D02*
D03*
D13*
X2318400Y3527400D02*
D03*
Y3127400D02*
D03*
X2558400D02*
D03*
Y3527400D02*
D03*
D14*
X660400Y3018297D02*
D03*
Y3433303D02*
D03*
D15*
X2032000Y279400D02*
D03*
Y1269401D02*
D03*
D16*
X1577497Y1963522D02*
D03*
X1634068Y2020092D02*
D03*
X1690634Y2076658D02*
D03*
X1747205Y2133229D02*
D03*
X1803771Y2189795D02*
D03*
X1860342Y2246366D02*
D03*
X1916908Y2302932D02*
D03*
X1973478Y2359503D02*
D03*
X1368903Y2964078D02*
D03*
X1312332Y2907508D02*
D03*
X1255766Y2850942D02*
D03*
X1199195Y2794371D02*
D03*
X1142629Y2737805D02*
D03*
X1086058Y2681234D02*
D03*
X1029492Y2624668D02*
D03*
X972922Y2568097D02*
D03*
D17*
X1973478D02*
D03*
X1916908Y2624668D02*
D03*
X1860342Y2681234D02*
D03*
X1803771Y2737805D02*
D03*
X1747205Y2794371D02*
D03*
X1690634Y2850942D02*
D03*
X1634068Y2907508D02*
D03*
X1577497Y2964078D02*
D03*
X972922Y2359503D02*
D03*
X1029492Y2302932D02*
D03*
X1086058Y2246366D02*
D03*
X1142629Y2189795D02*
D03*
X1199195Y2133229D02*
D03*
X1255766Y2076658D02*
D03*
X1312332Y2020092D02*
D03*
X1368903Y1963522D02*
D03*
D18*
X1818599Y3258800D02*
D03*
X1738600D02*
D03*
X1258600D02*
D03*
X1178601D02*
D03*
D19*
X1523599D02*
D03*
X1573601D02*
D03*
X1623598D02*
D03*
X1673601D02*
D03*
X1473601D02*
D03*
X1423599D02*
D03*
X1373602D02*
D03*
X1323599D02*
D03*
%TF.MD5,fc547507df6a34896ce35ab90736d256*%
M02*
