%TF.GenerationSoftware,Altium Limited,Altium Designer,24.7.2 (38)*%
G04 Layer_Physical_Order=2*
G04 Layer_Color=16711680*
%FSLAX45Y45*%
%MOMM*%
%TF.SameCoordinates,C77648C0-80D8-424D-8617-BB5A92A82554*%
%TF.FilePolarity,Positive*%
%TF.FileFunction,Copper,L2,Bot,Signal*%
%TF.Part,Single*%
G01*
G75*
%TA.AperFunction,SMDPad,CuDef*%
%ADD10R,1.00000X0.90000*%
%TA.AperFunction,Conductor*%
%ADD20C,0.25400*%
%TA.AperFunction,ComponentPad*%
%ADD21C,0.60000*%
%ADD22O,0.90000X2.00000*%
%ADD23O,0.90000X1.70000*%
%ADD24C,1.52400*%
%TA.AperFunction,ViaPad*%
%ADD25C,1.27000*%
%TA.AperFunction,SMDPad,CuDef*%
%ADD26R,1.50000X2.12000*%
%ADD27O,1.65000X0.65000*%
%ADD28R,0.70000X0.80000*%
%ADD29R,9.25000X1.65000*%
%ADD30R,0.90000X1.65000*%
D10*
X2006600Y1346200D02*
D03*
X1854200D02*
D03*
X2514600Y1371600D02*
D03*
X2362200D02*
D03*
X1498600Y1346200D02*
D03*
X1346200D02*
D03*
X2489200Y889000D02*
D03*
X2336800D02*
D03*
X2489200Y508000D02*
D03*
X2336800D02*
D03*
D20*
X1854200Y2082800D02*
X1922780Y2151380D01*
X1854200Y2001520D02*
Y2082800D01*
Y1752600D02*
Y2001520D01*
X2349500Y563880D02*
X2687320Y901700D01*
X2336800Y563880D02*
Y652780D01*
Y508000D02*
Y563880D01*
X2349500D01*
X1649100Y3046100D02*
Y3467740D01*
X660400Y1333500D02*
Y1746199D01*
X185420Y1536700D02*
Y1592580D01*
X1931101Y3792220D02*
X2022587D01*
X1931101Y3246120D02*
X2054860D01*
X2085340Y579120D02*
Y706120D01*
Y474980D02*
Y579120D01*
X1954850Y1286830D02*
Y1346200D01*
X1394120Y1241715D02*
X1909735D01*
X1066099Y3317240D02*
Y3479800D01*
Y3316798D02*
Y3317240D01*
Y3817269D02*
X1719931D01*
X878840Y3317240D02*
X1066099D01*
X669600Y3507740D02*
X1038159D01*
X644200Y3190240D02*
X751840D01*
X644200Y2724201D02*
Y3149600D01*
X1270000Y1117595D02*
X1369055D01*
X872800D02*
X1219195D01*
X1270000D01*
X828040Y1066800D02*
Y1145540D01*
X905200Y672140D02*
X939800Y637540D01*
X802640Y2054860D02*
Y2247900D01*
Y1623060D02*
Y2054860D01*
X2250440Y193040D02*
X2369820Y312420D01*
X2240280Y3705860D02*
X2387600D01*
X139700Y1143000D02*
X254000Y1028700D01*
X139700Y1143000D02*
Y1346200D01*
X203200Y1409700D01*
X299720D01*
X414020Y1295400D01*
X622300D01*
X660400Y1333500D01*
X693420D01*
X1649100Y2730500D02*
Y3046100D01*
X1701800Y3098800D01*
X1864360D01*
X1922780Y3040380D01*
Y2151380D02*
Y3040380D01*
X1854200Y1752600D02*
X1955800Y1651000D01*
X2413000D01*
X2514600Y1549400D01*
X1884680Y2052320D02*
X1905000D01*
X1854200Y2001520D02*
X1884680Y2052320D01*
X2514600Y1371600D02*
Y1549400D01*
X1154374Y3558540D02*
X1255974Y3660140D01*
X779780Y3558540D02*
X1154374D01*
X728980Y3609340D02*
X779780Y3558540D01*
X577540Y3609340D02*
X728980D01*
X549600Y3530600D02*
X577540Y3609340D01*
X2588260Y1501140D02*
X2794000Y1295400D01*
X2588260Y1501140D02*
Y1661160D01*
X2547620Y1701800D02*
X2588260Y1661160D01*
X2103120Y1701800D02*
X2547620D01*
X1955800Y1849120D02*
X2103120Y1701800D01*
X664398Y279400D02*
X777240Y392242D01*
Y487680D01*
X805180Y515620D01*
Y845820D01*
X1023620Y1064260D01*
X1463909D01*
X1590563Y1190915D01*
X1930781D01*
X2002246Y1262380D01*
X2095500D01*
Y1429705D01*
X1617569D02*
X2095500D01*
X1326672Y1720601D02*
X1617569Y1429705D01*
X1326672Y1720601D02*
Y1878808D01*
X1275080Y1930400D02*
X1326672Y1878808D01*
X1275080Y1930400D02*
Y2387600D01*
X1501140Y2613660D01*
Y3027680D01*
X1549400Y3075940D02*
Y3507740D01*
X1501140Y3027680D02*
X1549400Y3075940D01*
X1542400Y762000D02*
X1656080D01*
X1711960Y706120D01*
X2489200Y777240D02*
Y889000D01*
X2260600Y754380D02*
X2489200Y777240D01*
X2085340Y579120D02*
X2260600Y754380D01*
X1076000Y706740D02*
Y762000D01*
X1041400Y672140D02*
X1076000Y706740D01*
X905200Y672140D02*
X1041400D01*
X881380Y695960D02*
X905200Y672140D01*
X881380Y695960D02*
Y833120D01*
X1051560Y1003300D01*
X1671320D01*
X999678Y637540D02*
X1162238Y474980D01*
X939800Y637540D02*
X999678D01*
X1369055Y1117595D02*
X1463040Y1211580D01*
X1422400Y721360D02*
Y762000D01*
Y721360D02*
X1498600Y645160D01*
X1752600D01*
X1780647Y673207D01*
Y711200D01*
X1822196Y752749D01*
X1966869D01*
X2108159Y894039D01*
X2209800D01*
X2247900Y932139D01*
Y1574800D01*
X2240595Y1582105D02*
X2247900Y1574800D01*
X1920220Y1582105D02*
X2240595D01*
X1803400Y1698925D02*
X1920220Y1582105D01*
X1803400Y1698925D02*
Y2446020D01*
X1821180Y2463800D01*
X1551940Y2349500D02*
X1649100D01*
X1551940Y2319020D02*
Y2349500D01*
X1457960Y2225040D02*
X1551940Y2319020D01*
X1417320Y2225040D02*
X1457960D01*
X1376680Y2184400D02*
X1417320Y2225040D01*
X1376680Y2072640D02*
Y2184400D01*
Y2072640D02*
X1439692Y2009628D01*
Y1781028D02*
Y2009628D01*
Y1781028D02*
X1689415Y1531305D01*
X2192335D01*
X2197100Y1526540D01*
Y990600D02*
Y1526540D01*
X2163074Y956574D02*
X2197100Y990600D01*
X2064685Y956574D02*
X2163074D01*
X1948210Y840100D02*
X2064685Y956574D01*
X1348740Y840100D02*
X1948210D01*
X1348740Y635000D02*
Y840100D01*
Y635000D02*
X1558600Y425140D01*
Y381000D02*
Y425140D01*
X2362200Y1236980D02*
Y1371600D01*
X2358390Y1233170D02*
X2362200Y1236980D01*
X2184400Y2047240D02*
X2209800Y2072640D01*
Y2420620D01*
X2074428Y2555992D02*
X2209800Y2420620D01*
X2074428Y2555992D02*
Y2768600D01*
X2323348Y3017520D01*
X2501900D01*
Y3721100D01*
X2415540Y3807460D02*
X2501900Y3721100D01*
X2184400Y3807460D02*
X2415540D01*
X1986280Y3609340D02*
X2184400Y3807460D01*
X1468120Y3609340D02*
X1986280D01*
X1399540Y3540760D02*
X1468120Y3609340D01*
X1399540Y2865120D02*
Y3540760D01*
Y2865120D02*
X1417320Y2847340D01*
Y2616200D02*
Y2847340D01*
X1224280Y2423160D02*
X1417320Y2616200D01*
X1224280Y1904533D02*
Y2423160D01*
Y1904533D02*
X1259373Y1869440D01*
Y1714967D02*
Y1869440D01*
Y1714967D02*
X1498600Y1475740D01*
Y1346200D02*
Y1475740D01*
X2489200Y431800D02*
Y508000D01*
X2369820Y312420D02*
X2489200Y431800D01*
X2072640Y312420D02*
X2369820D01*
X1884680Y500380D02*
X2072640Y312420D01*
X1884680Y500380D02*
Y650240D01*
X254000Y266700D02*
X495300Y508000D01*
Y683260D01*
X448000Y730560D02*
X495300Y683260D01*
X448000Y730560D02*
Y1066800D01*
X479948Y1149548D01*
X826613D01*
X845459Y1168395D01*
X990595D01*
X1017626Y1195426D01*
X1193800D01*
X1219200Y1220826D01*
Y1450340D01*
X1168400Y1501140D02*
X1219200Y1450340D01*
X1168400Y1501140D02*
Y1746199D01*
X396240Y1534160D02*
X533400Y1397000D01*
X396240Y1534160D02*
Y3566160D01*
X543560Y3713480D01*
X655320D01*
X863600Y3921760D01*
X1409700D01*
X1419860Y3911600D01*
X2511268D01*
X2603500Y3819368D01*
Y2588260D02*
Y3819368D01*
X2491740Y2476500D02*
X2603500Y2588260D01*
X2364100Y2476500D02*
X2491740D01*
X497840Y2164080D02*
Y2214880D01*
Y2164080D02*
X744220Y1917700D01*
Y1549400D02*
Y1917700D01*
Y1549400D02*
X795020Y1498600D01*
Y1452880D02*
Y1498600D01*
X568000Y1066800D02*
Y1145540D01*
X828040D01*
Y1066800D02*
X872800D01*
X2082800Y1818640D02*
Y2176780D01*
Y1818640D02*
X2130547Y1770893D01*
X2664460D01*
X2696967Y1803400D01*
X2794000D01*
X2179320Y1871980D02*
X2204720Y1846580D01*
Y1752600D02*
Y1846580D01*
Y1752600D02*
X2595880D01*
X2705100Y1643380D01*
Y1638300D02*
Y1643380D01*
Y1638300D02*
X2794000Y1549400D01*
X599440Y1953260D02*
X744220D01*
Y1493520D02*
Y1953260D01*
Y1493520D02*
X889000Y1348740D01*
X1066800D01*
X830580Y3683000D02*
X1016000Y3868420D01*
X1993900D01*
X2037080Y3911600D01*
X2628900D01*
X2654300Y3886200D01*
Y2463800D02*
Y3886200D01*
X2540000Y2349500D02*
X2654300Y2463800D01*
X2364100Y2349500D02*
X2540000D01*
X549600Y699460D02*
Y762000D01*
X546100Y695960D02*
X549600Y699460D01*
X546100Y203200D02*
Y695960D01*
Y203200D02*
X685800Y63500D01*
X2839720D01*
X3004820Y228600D01*
Y3708400D01*
X165100Y3733800D02*
X254000Y3822700D01*
X139700Y3733800D02*
X165100D01*
X88900Y3683000D02*
X139700Y3733800D01*
X88900Y736600D02*
Y3683000D01*
Y736600D02*
X165100Y660400D01*
X342900D01*
X393700Y609600D01*
X1051560Y2413000D02*
X1176020Y2537460D01*
X1051560Y1899920D02*
Y2413000D01*
X185420Y1536700D02*
X254000D01*
X139700Y1638300D02*
X185420Y1592580D01*
X139700Y1638300D02*
Y3657600D01*
X165100Y3683000D01*
X375920D01*
X546100Y3853180D01*
X1231900Y3459480D02*
Y3484880D01*
Y3459480D02*
X1280160Y3411220D01*
Y3258820D02*
Y3411220D01*
X1023620Y3002280D02*
X1280160Y3258820D01*
X1954850Y1346200D02*
X2006600D01*
X1909735Y1241715D02*
X1954850Y1286830D01*
X1270000Y1117595D02*
X1394120Y1241715D01*
X872800Y1066800D02*
Y1117595D01*
X254000Y774700D02*
X368300Y889000D01*
Y1143000D01*
X428214Y1202914D01*
X758414D01*
X801726Y1246226D01*
X1143000D01*
X1168400Y1271626D01*
Y1397000D01*
X1115060Y1450340D02*
X1168400Y1397000D01*
X975360Y1450340D02*
X1115060D01*
X802640Y1623060D02*
X975360Y1450340D01*
X548640Y2501900D02*
X802640Y2247900D01*
X1620520Y1752600D02*
X1701800Y1671320D01*
X1557020Y1752600D02*
X1620520D01*
X1524000Y1785620D02*
X1557020Y1752600D01*
X1524000Y1785620D02*
Y2077720D01*
X1478280Y2123440D02*
X1524000Y2077720D01*
X2212340Y2565400D02*
X2250440Y2603500D01*
X2364100D01*
X1649100Y3467740D02*
X1701800Y3520440D01*
X2202180D01*
X2387600Y3335020D01*
Y3166699D02*
Y3335020D01*
X914400Y2595723D02*
Y2724201D01*
Y2595723D02*
X947420Y2562703D01*
Y1819554D02*
Y2562703D01*
X914400Y1786534D02*
X947420Y1819554D01*
X914400Y1746199D02*
Y1786534D01*
X956000Y762000D02*
Y835894D01*
X1011006Y890900D01*
X1858640D01*
X1975114Y1007374D01*
X2112274D01*
X2146300Y1041400D01*
Y1480505D01*
X1668369D02*
X2146300D01*
X1388892Y1759981D02*
X1668369Y1480505D01*
X1388892Y1759981D02*
Y1988581D01*
X1325880Y2051594D02*
X1388892Y1988581D01*
X1325880Y2051594D02*
Y2255520D01*
X1450340Y2379980D01*
X1800860Y1087120D02*
X2009140D01*
X2044700Y1122680D01*
X644200Y3149600D02*
Y3190240D01*
X751840D02*
X878840Y3317240D01*
X1346200Y1244600D02*
Y1346200D01*
X1219195Y1117595D02*
X1346200Y1244600D01*
X1993900Y2484120D02*
X2108200Y2369820D01*
X1993900Y2484120D02*
Y3073400D01*
X1917700Y3149600D02*
X1993900Y3073400D01*
X1844040Y3149600D02*
X1917700D01*
X1717040Y3276600D02*
X1844040Y3149600D01*
X1717040Y3276600D02*
Y3429000D01*
X1744980Y3456940D01*
X2057400D01*
X2133600Y3380740D01*
X1038159Y3507740D02*
X1066099Y3479800D01*
X669600Y3507740D02*
Y3530600D01*
X1438600Y330200D02*
Y381000D01*
Y330200D02*
X1575760Y193040D01*
X2250440D01*
X1266002Y381000D02*
X1438600D01*
X1164402Y279400D02*
X1266002Y381000D01*
X1931101Y3246120D02*
Y3316798D01*
X2514600Y1371600D02*
X2567940D01*
X2644140Y1295400D01*
Y1242060D02*
Y1295400D01*
Y1242060D02*
X2717800Y1168400D01*
X2832100D01*
X2908300Y1092200D01*
Y990600D02*
Y1092200D01*
X2819400Y901700D02*
X2908300Y990600D01*
X2687320Y901700D02*
X2819400D01*
X1821180Y2463800D02*
Y2964180D01*
X1788160Y2997200D02*
X1821180Y2964180D01*
X662239Y474980D02*
X752800Y565541D01*
Y1066800D01*
X2705100Y952500D02*
X2794000Y1041400D01*
X2489200Y952500D02*
X2705100D01*
X2489200Y889000D02*
Y952500D01*
X1931101Y3733800D02*
Y3792220D01*
X2022587D02*
X2089074Y3858707D01*
X2465893D01*
X2552700Y3771900D01*
Y2819400D02*
Y3771900D01*
X2463800Y2730500D02*
X2552700Y2819400D01*
X2364100Y2730500D02*
X2463800D01*
X1803400Y3733800D02*
X1931101D01*
X1719931Y3817269D02*
X1803400Y3733800D01*
X1066099D02*
Y3817269D01*
X2387600Y3589701D02*
Y3705860D01*
X549600Y3352800D02*
Y3530600D01*
X524200Y3327400D02*
X549600Y3352800D01*
X524200Y3149600D02*
Y3327400D01*
X669600Y762000D02*
Y863600D01*
X568000Y965200D02*
X669600Y863600D01*
X568000Y965200D02*
Y1066800D01*
X2054860Y3246120D02*
X2174240Y3126740D01*
X644200Y2724201D02*
X914400D01*
X2489200Y508000D02*
X2565400D01*
X2641600Y584200D01*
Y635000D01*
X2794000Y787400D01*
D21*
X1787601Y3365800D02*
D03*
X1209599D02*
D03*
D22*
X1931101Y3316798D02*
D03*
X1066099D02*
D03*
D23*
X1931101Y3733800D02*
D03*
X1066099D02*
D03*
D24*
X2794000Y3835400D02*
D03*
Y3581400D02*
D03*
Y3327400D02*
D03*
Y3073400D02*
D03*
Y2819400D02*
D03*
Y2565400D02*
D03*
Y2311400D02*
D03*
Y2057400D02*
D03*
Y1803400D02*
D03*
Y1549400D02*
D03*
Y1295400D02*
D03*
Y1041400D02*
D03*
Y787400D02*
D03*
Y533400D02*
D03*
Y279400D02*
D03*
X254000Y3822700D02*
D03*
Y3568700D02*
D03*
Y3314700D02*
D03*
Y3060700D02*
D03*
Y2806700D02*
D03*
Y2552700D02*
D03*
Y2298700D02*
D03*
Y2044700D02*
D03*
Y1790700D02*
D03*
Y1536700D02*
D03*
Y1282700D02*
D03*
Y1028700D02*
D03*
Y774700D02*
D03*
Y520700D02*
D03*
Y266700D02*
D03*
X914400Y279400D02*
D03*
X1164402D02*
D03*
X1162238Y474980D02*
D03*
X912241D02*
D03*
X664398Y279400D02*
D03*
X662239Y474980D02*
D03*
D25*
X693420Y1333500D02*
D03*
X1905000Y2052320D02*
D03*
X1255974Y3660140D02*
D03*
X1955800Y1849120D02*
D03*
X1501140Y3027680D02*
D03*
X1549400Y3507740D02*
D03*
X2085340Y706120D02*
D03*
Y474980D02*
D03*
X1671320Y1003300D02*
D03*
X1463040Y1211580D02*
D03*
X1821180Y2463800D02*
D03*
X2358390Y1233170D02*
D03*
X2184400Y2047240D02*
D03*
X1884680Y650240D02*
D03*
X802640Y2054860D02*
D03*
X548640Y2501900D02*
D03*
X533400Y1397000D02*
D03*
X497840Y2214880D02*
D03*
X795020Y1452880D02*
D03*
X2082800Y2176780D02*
D03*
X2179320Y1871980D02*
D03*
X599440Y1953260D02*
D03*
X1066800Y1348740D02*
D03*
X830580Y3683000D02*
D03*
X3004820Y3708400D02*
D03*
X2336800Y652780D02*
D03*
X393700Y609600D02*
D03*
X1176020Y2537460D02*
D03*
X1051560Y1899920D02*
D03*
X546100Y3853180D02*
D03*
X1231900Y3484880D02*
D03*
X1023620Y3002280D02*
D03*
X1701800Y1671320D02*
D03*
X1478280Y2123440D02*
D03*
X2212340Y2565400D02*
D03*
X1450340Y2379980D02*
D03*
X1800860Y1087120D02*
D03*
X2044700Y1122680D02*
D03*
X751840Y3190240D02*
D03*
X2108200Y2369820D02*
D03*
X2133600Y3380740D02*
D03*
X2174240Y3126740D02*
D03*
X1788160Y2997200D02*
D03*
X2240280Y3705860D02*
D03*
D26*
X2387600Y3166699D02*
D03*
Y3589701D02*
D03*
D27*
X1649100Y1841500D02*
D03*
Y1968500D02*
D03*
Y2095500D02*
D03*
Y2222500D02*
D03*
Y2349500D02*
D03*
Y2476500D02*
D03*
Y2603500D02*
D03*
Y2730500D02*
D03*
X2364100Y1841500D02*
D03*
Y1968500D02*
D03*
Y2095500D02*
D03*
Y2222500D02*
D03*
Y2349500D02*
D03*
Y2476500D02*
D03*
Y2603500D02*
D03*
Y2730500D02*
D03*
D28*
X1076000Y762000D02*
D03*
X956000D02*
D03*
X872800Y1066800D02*
D03*
X752800D02*
D03*
X644200Y3149600D02*
D03*
X524200D02*
D03*
X1558600Y381000D02*
D03*
X1438600D02*
D03*
X1542400Y762000D02*
D03*
X1422400D02*
D03*
X669600D02*
D03*
X549600D02*
D03*
X568000Y1066800D02*
D03*
X448000D02*
D03*
X669600Y3530600D02*
D03*
X549600D02*
D03*
D29*
X914400Y2724201D02*
D03*
D30*
X660400Y1746199D02*
D03*
X914400D02*
D03*
X1168400D02*
D03*
%TF.MD5,f26fddf3906f9b3f87bc55f00b8ecde1*%
M02*
