%TF.GenerationSoftware,Altium Limited,Altium Designer,24.7.2 (38)*%
G04 Layer_Physical_Order=2*
G04 Layer_Color=16711680*
%FSLAX45Y45*%
%MOMM*%
%TF.SameCoordinates,E62C00BC-2682-4819-A5F8-2A4CFBBBB381*%
%TF.FilePolarity,Positive*%
%TF.FileFunction,Copper,L2,Bot,Signal*%
%TF.Part,Single*%
G01*
G75*
%TA.AperFunction,ViaPad*%
%ADD16C,0.70000*%
G36*
X2822922Y1390392D02*
X2868419Y1371547D01*
X2909366Y1344188D01*
X2944188Y1309366D01*
X2971547Y1268419D01*
X2990393Y1222922D01*
X3000000Y1174623D01*
Y1150000D01*
Y250000D01*
Y235226D01*
X2994236Y206247D01*
X2982928Y178948D01*
X2966512Y154381D01*
X2945619Y133487D01*
X2921052Y117072D01*
X2893753Y105764D01*
X2864774Y100000D01*
X228983D01*
X179911Y109761D01*
X133686Y128908D01*
X92084Y156705D01*
X56705Y192084D01*
X28908Y233686D01*
X9761Y279911D01*
X0Y328983D01*
Y354000D01*
Y1200000D01*
Y1219698D01*
X7686Y1258338D01*
X22762Y1294735D01*
X44650Y1327492D01*
X72507Y1355350D01*
X105264Y1377238D01*
X141662Y1392314D01*
X180302Y1400000D01*
X2774623D01*
X2822922Y1390392D01*
D02*
G37*
%LPC*%
G36*
X2805200Y839216D02*
Y791800D01*
X2852616D01*
X2843704Y813314D01*
X2826714Y830305D01*
X2805200Y839216D01*
D02*
G37*
G36*
X2779800D02*
X2758286Y830305D01*
X2741295Y813314D01*
X2732384Y791800D01*
X2779800D01*
Y839216D01*
D02*
G37*
G36*
X2852616Y766400D02*
X2805200D01*
Y718984D01*
X2826714Y727895D01*
X2843704Y744886D01*
X2852616Y766400D01*
D02*
G37*
G36*
X2779800D02*
X2732384D01*
X2741295Y744886D01*
X2758286Y727895D01*
X2779800Y718984D01*
Y766400D01*
D02*
G37*
G36*
X695200Y615116D02*
Y567700D01*
X742616D01*
X733705Y589214D01*
X716714Y606205D01*
X695200Y615116D01*
D02*
G37*
G36*
X669800D02*
X648286Y606205D01*
X631295Y589214D01*
X622384Y567700D01*
X669800D01*
Y615116D01*
D02*
G37*
G36*
X2817900Y572516D02*
Y525100D01*
X2865316D01*
X2856404Y546614D01*
X2839414Y563605D01*
X2817900Y572516D01*
D02*
G37*
G36*
X2792500D02*
X2770986Y563605D01*
X2753995Y546614D01*
X2745084Y525100D01*
X2792500D01*
Y572516D01*
D02*
G37*
G36*
X742616Y542300D02*
X695200D01*
Y494884D01*
X716714Y503795D01*
X733705Y520786D01*
X742616Y542300D01*
D02*
G37*
G36*
X669800D02*
X622384D01*
X631295Y520786D01*
X648286Y503795D01*
X669800Y494884D01*
Y542300D01*
D02*
G37*
G36*
X2865316Y499700D02*
X2817900D01*
Y452284D01*
X2839414Y461195D01*
X2856404Y478186D01*
X2865316Y499700D01*
D02*
G37*
G36*
X2792500D02*
X2745084D01*
X2753995Y478186D01*
X2770986Y461195D01*
X2792500Y452284D01*
Y499700D01*
D02*
G37*
%LPD*%
D16*
X682500Y555000D02*
D03*
X2805200Y512400D02*
D03*
X2792500Y779100D02*
D03*
%TF.MD5,55191ec3cf34f6e472b3310916561260*%
M02*
