%TF.GenerationSoftware,Altium Limited,Altium Designer,24.7.2 (38)*%
G04 Layer_Physical_Order=1*
G04 Layer_Color=255*
%FSLAX45Y45*%
%MOMM*%
%TF.SameCoordinates,E62C00BC-2682-4819-A5F8-2A4CFBBBB381*%
%TF.FilePolarity,Positive*%
%TF.FileFunction,Copper,L1,Top,Signal*%
%TF.Part,Single*%
G01*
G75*
%TA.AperFunction,SMDPad,CuDef*%
%ADD10R,1.70000X0.60000*%
%ADD11R,2.70000X1.00000*%
%ADD12R,1.00000X3.20000*%
%ADD13R,1.50000X1.50000*%
%ADD14R,1.10000X1.65000*%
%TA.AperFunction,Conductor*%
%ADD15C,0.25400*%
%TA.AperFunction,ViaPad*%
%ADD16C,0.70000*%
D10*
X612500Y680000D02*
D03*
Y805000D02*
D03*
D11*
X292500Y495000D02*
D03*
Y990000D02*
D03*
D12*
X979600Y979400D02*
D03*
Y299400D02*
D03*
X1379600Y979400D02*
D03*
Y299400D02*
D03*
D13*
X1804700Y982300D02*
D03*
X2154700D02*
D03*
X1855500Y309200D02*
D03*
X2205500D02*
D03*
D14*
X2833400Y321900D02*
D03*
X2548400D02*
D03*
X2830600Y956900D02*
D03*
X2545600D02*
D03*
D15*
X612500Y625000D02*
Y680000D01*
Y625000D02*
X682500Y555000D01*
X820000Y322379D02*
X834879Y307500D01*
X820000Y322379D02*
Y772621D01*
X834879Y307500D02*
X971500D01*
X979600Y299400D01*
X812621Y780000D02*
X820000Y772621D01*
X812500Y780000D02*
X812621D01*
X787500Y805000D02*
X812500Y780000D01*
X974000Y985000D02*
X979600Y979400D01*
X817379Y985000D02*
X974000D01*
X802500Y820000D02*
Y970121D01*
X817379Y985000D01*
X787500Y805000D02*
X802500Y820000D01*
X612500Y805000D02*
X787500D01*
X2830600Y817200D02*
Y956900D01*
X2792500Y779100D02*
X2830600Y817200D01*
X2805200Y512400D02*
X2833400Y484200D01*
Y321900D02*
Y484200D01*
X2535700Y309200D02*
X2548400Y321900D01*
X2205500Y309200D02*
X2535700D01*
X2520200Y982300D02*
X2545600Y956900D01*
X2154700Y982300D02*
X2520200D01*
X1379600Y299400D02*
X1845700D01*
X1855500Y309200D01*
X1801800Y979400D02*
X1804700Y982300D01*
X1379600Y979400D02*
X1801800D01*
D16*
X682500Y555000D02*
D03*
X2805200Y512400D02*
D03*
X2792500Y779100D02*
D03*
%TF.MD5,10316e24af83a8ec0c976001eaa5f1f9*%
M02*
